<ttFont>
          <CharString index="0">
            rmoveto
            196 145 170 189 178 -136 183 -203 -196 -146 -171 -189 -182 137 -178 203 hvcurveto
            -226 360 rmoveto
            128 84 130 143 136 89 -123 -135 -127 -82 -132 -143 -139 -88 125 134 vhcurveto
            return
          </CharString>
          <CharString index="1">
            163 106 126 145 145 -106 126 -163 -162 -107 -126 -145 -145 105 -126 164 hvcurveto
            -156 270 rmoveto
            100 70 78 86 87 69 -77 -100 -100 -69 -77 -87 -87 -69 75 101 vhcurveto
            return
          </CharString>
          <CharString index="2">
            -147 -47 124 130 hvcurveto
            360 -112 -360 vlineto
            -184 80 -171 226 219 88 161 194 vhcurveto
            360 -113 -360 vlineto
            -127 -45 -127 -149 vhcurveto
            return
          </CharString>
          <CharString index="3">
            -22 1 -8 55 callsubr
            -61 -40 -62 hhcurveto
            -66 -34 48 93 hvcurveto
            298 -110 -320 vlineto
            -140 57 -73 109 vhcurveto
            return
          </CharString>
          <CharString index="4">
            7 hmoveto
            119 hlineto
            74 193 rlineto
            274 hlineto
            75 -193 rlineto
            118 hlineto
            -280 710 rlineto
            -98 hlineto
            -69 -434 rmoveto
            118 305 114 -305 rlineto
            return
          </CharString>
          <CharString index="5">
            vstem
            -104 callgsubr
            return
          </CharString>
          <CharString index="6">
            rmoveto
            85 63 85 -63 59 28 -104 95 rlineto
            -79 hlineto
            -104 -95 rlineto
            return
          </CharString>
          <CharString index="7">
            rmoveto
            -105 hlineto
            -57 -110 72 -22 rlineto
            return
          </CharString>
          <CharString index="8">
            rmoveto
            -180 140 -186 199 -11 callgsubr
            vhcurveto
            -93 53 rlineto
            -83 -37 -83 -34 -69 hhcurveto
            -133 -96 123 138 124 78 133 148 28 callgsubr
            hvcurveto
            88 59 rlineto
            91 -46 -96 64 -128 hhcurveto
            -217 -127 -182 -172 hvcurveto
            return
          </CharString>
          <CharString index="9">
            84 -219 rmoveto
            -6 21 17 -2 16 hhcurveto
            82 54 47 59 21 hvcurveto
            237 644 rlineto
            -104 hlineto
            -144 -426 -162 426 rlineto
            -113 hlineto
            215 -523 rlineto
            -107 -38 -15 -23 -34 hhcurveto
            -12 -21 3 4 -20 hvcurveto
            return
          </CharString>
          <CharString index="10">
            -22 -57 callgsubr
            600 -110 -306 vlineto
            62 -36 -67 46 -83 hhcurveto
            -135 -99 -123 -146 -151 105 -122 141 hvcurveto
            27 94 rmoveto
            -87 -72 79 97 91 64 87 87 64 66 -46 -67 25 hvcurveto
            -137 vlineto
            -59 -16 -66 -45 -65 hhcurveto
            endchar
          </CharString>
          <CharString index="11">
            376 96 rmoveto
            -105 callsubr
            return
          </CharString>
          <CharString index="12">
            rmoveto
            -146 108 -126 163 110 87 56 78 34 vhcurveto
            -108 32 rlineto
            -40 -16 -54 -32 -54 hhcurveto
            -86 -71 77 101 103 68 73 88 52 45 -26 -44 25 hvcurveto
            107 34 rlineto
            78 -39 -80 52 -108 hhcurveto
            -165 -106 -123 -147 hvcurveto
            return
          </CharString>
          <CharString index="13">
            -49 -23 44 -59 hhcurveto
            -83 -24 -94 -21 hvcurveto
            62 hlineto
            4 4 44 45 vhcurveto
            return
          </CharString>
          <CharString index="14">
            rmoveto
            270 348 276 329 -52 45 -264 -343 -281 -333 rlineto
            return
          </CharString>
          <CharString index="15">
            29 25 -30 -41 4 hvcurveto
            61 hlineto
            70 -51 52 -68 -68 -51 -52 -70 vhcurveto
            61 hlineto
            return
          </CharString>
          <CharString index="16">
            64 -41 -64 44 -84 hhcurveto
            -143 -100 -122 -149 -141 98 -125 141 hvcurveto
            36 89 rmoveto
            -92 -71 79 95 90 60 90 95 62 64 -47 -66 26 hvcurveto
            -137 vlineto
            -55 -16 -62 -49 -66 hhcurveto
            return
          </CharString>
          <CharString index="17">
            rmoveto
            -76 194 90 222 rlineto
            -90 hlineto
            -59 -164 -60 164 rlineto
            -90 hlineto
            91 -222 -76 -194 -169 417 rlineto
            -105 hlineto
            221 -523 rlineto
            91 hlineto
            97 243 97 -243 rlineto
            91 hlineto
            220 523 rlineto
            -105 hlineto
            return
          </CharString>
          <CharString index="18">
            -213 rmoveto
            35 77 rlineto
            88 -95 -88 32 vlineto
            -23 -77 rlineto
            return
          </CharString>
          <CharString index="19">
            9 710 rmoveto
            263 -454 rlineto
            -256 112 254 vlineto
            265 456 77 callsubr
            -198 -356 -196 356 rlineto
            return
          </CharString>
          <CharString index="20">
            rmoveto
            72 71 37 63 37 hvcurveto
            -80 vlineto
            -106 -78 -48 -90 -72 -67 30 56 -40 vhcurveto
            -62 -58 rlineto
            -70 52 73 -42 116 hhcurveto
            158 120 87 151 hvcurveto
            508 vlineto
            return
          </CharString>
          <CharString index="21">
            210 136 141 215 196 -117 158 -229 hvcurveto
            -252 -710 hlineto
            484 356 rmoveto
            return
          </CharString>
          <CharString index="22">
            -35 1 32 -24 40 hhcurveto
            13 13 1 4 23 hvcurveto
            94 vlineto
            return
          </CharString>
          <CharString index="23">
            rmoveto
            70 22 -57 110 rlineto
            -105 hlineto
            endchar
          </CharString>
          <CharString index="24">
            205 -10 rmoveto
            78 72 34 61 47 hvcurveto
            3 -33 rlineto
            return
          </CharString>
          <CharString index="25">
            -69 callgsubr
            40 40 -36 callsubr
            return
          </CharString>
          <CharString index="26">
            433 78 -315 hlineto
            312 376 rlineto
            69 -419 -78 303 vlineto
            -314 -376 rlineto
            return
          </CharString>
          <CharString index="27">
            -47 -41 -26 -65 -64 -61 24 45 -62 vhcurveto
            -44 -70 rlineto
            -51 59 90 -28 84 hhcurveto
            return
          </CharString>
          <CharString index="28">
            rlineto
            5 17 35 7 28 hhcurveto
            31 21 -8 -26 -24 -22 -10 -35 -35 -37 11 9 -16 hvcurveto
            endchar
          </CharString>
          <CharString index="29">
            21 -52 callgsubr
            return
          </CharString>
          <CharString index="30">
            rmoveto
            89 78 40 76 47 hvcurveto
            2 -52 rlineto
            return
          </CharString>
          <CharString index="31">
            -10 81 -55 -21 261 63 135 78 return
          </CharString>
          <CharString index="32">
            rmoveto
            75 97 32 79 46 hvcurveto
            -67 46 79 -44 96 hhcurveto
            110 90 56 78 35 80 callsubr
            -86 -73 62 92 -7 hvcurveto
            427 hlineto
            2 9 1 17 10 vvcurveto
            147 -1 -105 124 -164 hhcurveto
            -80 -67 -34 -51 -44 hvcurveto
            54 -35 -63 31 -84 hhcurveto
            -73 -69 -23 -45 -68 hvcurveto
            35 -70 rlineto
            39 57 54 21 54 hhcurveto
            74 43 -36 -63 8 hvcurveto
            -6 -15 -3 -24 -2 -17 rrcurveto
            return
          </CharString>
          <CharString index="33">
            306 rmoveto
            90 84 39 78 -19 callgsubr
            11 34 31 46 vvcurveto
            65 -70 49 -94 -65 -65 -22 -39 9 callgsubr
            -19 -37 -39 -53 -18 -82 hvcurveto
            return
          </CharString>
          <CharString index="34">
            -13 -76 callsubr
            return
          </CharString>
          <CharString index="35">
            183 rmoveto
            90 -51 67 -81 24 vhcurveto
            hintmask 11111000
            65 29 37 67 69 vvcurveto
            89 -62 92 -100 vhcurveto
            -366 -710 339 hlineto
            hintmask 11110100
            120 99 69 114 hvcurveto
            -115 21 rmoveto
            -58 -45 -49 -59 vhcurveto
            -227 217 234 hlineto
            56 41 -52 -58 hvcurveto
            -119 409 rmoveto
            hintmask 11111000
            53 39 -44 -61 -60 -43 -44 -55 hvcurveto
            -206 209 hlineto
            endchar
          </CharString>
          <CharString index="36">
            rmoveto
            -89 hlineto
            -51 -110 55 -22 rlineto
            233 132 rmoveto
            -90 hlineto
            -51 -110 56 -22 rlineto
            return
          </CharString>
          <CharString index="37">
            -406 512 rlineto
            -88 -710 112 500 hlineto
            return
          </CharString>
          <CharString index="38">
            -104 callsubr
            endchar
          </CharString>
          <CharString index="39">
            rmoveto
            1 -7 -8 0 -13 hhcurveto
            -66 -4 -62 -46 -36 -72 rrcurveto
            return
          </CharString>
          <CharString index="40">
            115 -31 98 -125 -92 -81 -44 -70 -40 vhcurveto
            return
          </CharString>
          <CharString index="41">
            25 58 rlineto
            -39 3 -19 15 23 vvcurveto
            return
          </CharString>
          <CharString index="42">
            -10 rmoveto
            136 96 121 151 145 -104 125 -143 -79 -66 -41 -62 -40 hvcurveto
            hintmask 11011010
            94 -97 -736 vlineto
            hintmask 11100110
            110 311 hlineto
            -64 37 66 -44 84 hhcurveto
            -36 94 rmoveto
            -64 -60 50 64 -27 hvcurveto
            137 vlineto
            58 16 70 45 57 hhcurveto
            93 70 -79 -97 -91 -62 -87 -93 hvcurveto
            endchar
          </CharString>
          <CharString index="43">
            rmoveto
            -297 -358 297 -112 -710 112 313 358 -313 113 710 vlineto
            return
          </CharString>
          <CharString index="44">
            52 callsubr
            227 -20 hstem
            70 112 388 -86 callgsubr
            return
          </CharString>
          <CharString index="45">
            140 hlineto
            147 85 -106 -149 hvcurveto
            endchar
          </CharString>
          <CharString index="46">
            -67 callgsubr
            -99 421 vlineto
            -431 -525 rlineto
            return
          </CharString>
          <CharString index="47">
            -41 -4 -25 -30 -29 hhcurveto
            endchar
          </CharString>
          <CharString index="48">
            32 49 32 18 14 hvcurveto
            -279 -79 -66 219 66 vlineto
            return
          </CharString>
          <CharString index="49">
            99 217 93 202 99 return
          </CharString>
          <CharString index="50">
            110 311 vlineto
            72 22 68 51 60 hhcurveto
            63 36 -46 -95 38 callgsubr
            return
          </CharString>
          <CharString index="51">
            43 26 -43 61 hhcurveto
            endchar
          </CharString>
          <CharString index="52">
            61 44 37 94 85 81 -43 -29 26 vhcurveto
            return
          </CharString>
          <CharString index="53">
            rmoveto
            115 -99 -115 vlineto
            return
          </CharString>
          <CharString index="54">
            32 -10 -38 callsubr
            return
          </CharString>
          <CharString index="55">
            -97 -95 hlineto
            hintmask 11101100
            61 -38 -67 43 -80 hhcurveto
            -140 -106 -121 -149 -147 95 -125 136 hvcurveto
            40 94 rmoveto
            -93 -66 79 96 92 66 87 93 62 72 -53 -63 13 hvcurveto
            -138 vlineto
            -57 -32 -49 -43 -66 hhcurveto
            endchar
          </CharString>
          <CharString index="56">
            -66 callsubr
            28 24 27 56 34 vhcurveto
            return
          </CharString>
          <CharString index="57">
            13 -34 -46 7 -44 hhcurveto
            -130 -90 -67 -98 -93 76 -71 100 hvcurveto
            30 81 rmoveto
            -58 -45 40 52 55 56 38 79 35 38 -7 -11 33 hvcurveto
            1 -20 5 -40 9 -17 -1 -11 -8 -14 -12 -10 rrcurveto
            -34 -26 -52 -21 -54 hhcurveto
            return
          </CharString>
          <CharString index="58">
            97 60 65 -60 252 -46 vlineto
            -244 -253 rlineto
            -64 224 -97 vlineto
            2 329 rmoveto
            -167 -159 vlineto
            return
          </CharString>
          <CharString index="59">
            35 -32 callsubr
            return
          </CharString>
          <CharString index="60">
            128 84 130 143 36 33 -9 -16 29 vhcurveto
            -274 -400 rlineto
            -33 47 -18 59 61 vvcurveto
            452 hmoveto
            -127 -82 -132 -143 -37 -34 9 15 -29 vhcurveto
            274 401 rlineto
            33 -46 18 -59 -61 vvcurveto
            return
          </CharString>
          <CharString index="61">
            -27 callgsubr
            227 -20 hstem
            return
          </CharString>
          <CharString index="62">
            117 -102 -523 110 320 vlineto
            return
          </CharString>
          <CharString index="63">
            113 vstem
            return
          </CharString>
          <CharString index="64">
            rmoveto
            -108 -523 89 hlineto
            263 359 rlineto
            -359 108 523 -84 vlineto
            -268 -367 rlineto
            return
          </CharString>
          <CharString index="65">
            121 hlineto
            118 193 rlineto
            239 -193 475 99 -363 213 300 99 -300 200 354 99 -496 hlineto
            -160 -417 rmoveto
            182 288 rlineto
            -288 vlineto
            endchar
          </CharString>
          <CharString index="66">
            -305 -78 callsubr
            return
          </CharString>
          <CharString index="67">
            -53 callsubr
            227 14 callsubr
            hintmask 10111100
            return
          </CharString>
          <CharString index="68">
            -32 -39 -23 -24 7 16 return
          </CharString>
          <CharString index="69">
            94 -68 -21 528 -20 return
          </CharString>
          <CharString index="70">
            -110 vlineto
            return
          </CharString>
          <CharString index="71">
            50 26 54 50 54 -24 -41 vhcurveto
            return
          </CharString>
          <CharString index="72">
            32 callsubr
            -92 122 return
          </CharString>
          <CharString index="73">
            -21 709 -20 21 -11 callsubr
            return
          </CharString>
          <CharString index="74">
            rmoveto
            81 70 40 65 39 hvcurveto
            2 -39 rlineto
            return
          </CharString>
          <CharString index="75">
            114 452 115 return
          </CharString>
          <CharString index="76">
            rmoveto
            49 -37 34 -51 19 vhcurveto
            hintmask 1110100100000000
            41 15 31 28 40 vvcurveto
            67 -81 42 -74 -75 -81 -43 -67 -41 34 -27 38 -14 vhcurveto
            hintmask 1111000010000000
            -46 -18 -42 -30 -52 vvcurveto
            -70 74 return
          </CharString>
          <CharString index="77">
            -20 hstem
            66 -3 callgsubr
            5 -191 rmoveto
            92 79 74 106 hvcurveto
            534 -110 -542 vlineto
            -44 -35 -39 callsubr
            -18 -38 callgsubr
            45 -14 48 hhcurveto
            return
          </CharString>
          <CharString index="78">
            -93 callsubr
            endchar
          </CharString>
          <CharString index="79">
            rmoveto
            90 84 38 22 callsubr
            12 34 30 return
          </CharString>
          <CharString index="80">
            73 vhcurveto
            -67 7 rmoveto
            -39 -52 -26 -51 -50 -55 24 41 39 45 callgsubr
            172 rmoveto
            31 42 20 47 45 44 -19 -32 -33 -48 return
          </CharString>
          <CharString index="81">
            110 -92 return
          </CharString>
          <CharString index="82">
            -223 84 134 89 53 callgsubr
            return
          </CharString>
          <CharString index="83">
            -78 callsubr
            hstem
            return
          </CharString>
          <CharString index="84">
            38 27 33 31 vhcurveto
            return
          </CharString>
          <CharString index="85">
            rmoveto
            89 70 66 83 82 -70 66 -89 -88 -71 -66 -82 -83 75 callsubr
            -37 41 51 48 36 43 45 43 38 -41 -50 -50 -36 -42 -45 hvcurveto
            return
          </CharString>
          <CharString index="86">
            hstem
            -48 callsubr
            vstem
            return
          </CharString>
          <CharString index="87">
            5 callgsubr
            110 return
          </CharString>
          <CharString index="88">
            702 -94 callgsubr
            -138 -730 rmoveto
            433 78 -315 hlineto
            312 376 rlineto
            69 -419 return
          </CharString>
          <CharString index="89">
            121 61 113 62 hstemhm
            125 -7 callsubr
            hintmask 11101000
            191 return
          </CharString>
          <CharString index="90">
            -100 callsubr
            endchar
          </CharString>
          <CharString index="91">
            -5 53 callsubr
            return
          </CharString>
          <CharString index="92">
            -10 callsubr
            -20 return
          </CharString>
          <CharString index="93">
            rmoveto
            140 hlineto
            85 47 -53 -79 -80 -44 -51 -88 hvcurveto
            -140 hlineto
            endchar
          </CharString>
          <CharString index="94">
            -74 callgsubr
            -4 callsubr
            117 vstem
            return
          </CharString>
          <CharString index="95">
            28 67 71 39 85 2 rrcurveto
            return
          </CharString>
          <CharString index="96">
            -20 78 callsubr
            return
          </CharString>
          <CharString index="97">
            -21 523 return
          </CharString>
          <CharString index="98">
            rmoveto
            95 60 66 -60 251 -46 vlineto
            -244 -252 rlineto
            -65 224 -95 vlineto
            2 328 rmoveto
            -167 -159 vlineto
            endchar
          </CharString>
          <CharString index="99">
            -203 21 37 callsubr
            return
          </CharString>
          <CharString index="100">
            240 -82 82 -68 68 return
          </CharString>
          <CharString index="101">
            26 -45 -53 15 -58 hhcurveto
            -196 -146 -171 -189 -96 37 -94 65 -68 hvcurveto
            -66 -97 rlineto
            122 hlineto
            24 35 rlineto
            return
          </CharString>
          <CharString index="102">
            rmoveto
            75 hlineto
            244 412 rlineto
            -348 -66 242 hlineto
            endchar
          </CharString>
          <CharString index="103">
            9 callsubr
            32 return
          </CharString>
          <CharString index="104">
            14 1 4 24 hvcurveto
            94 vlineto
            hintmask 11011100
            -23 1 -9 55 callsubr
            -62 -40 -60 hhcurveto
            return
          </CharString>
          <CharString index="105">
            51 -25 callsubr
            227 -20 hstemhm
            33 112 307 110 -97 97 hintmask 11011110
            return
          </CharString>
          <CharString index="106">
            -12 callsubr
            endchar
          </CharString>
          <CharString index="107">
            41 callgsubr
            113 return
          </CharString>
          <CharString index="108">
            rmoveto
            77 -72 61 -99 -46 -50 -19 -31 -21 vhcurveto
            81 1 47 46 72 hhcurveto
            45 43 -19 -30 19 hvcurveto
            40 46 rlineto
            return
          </CharString>
          <CharString index="109">
            -70 119 -134 -127 -78 -110 return
          </CharString>
          <CharString index="110">
            21 20 callsubr
            return
          </CharString>
          <CharString index="111">
            25 -50 callgsubr
            return
          </CharString>
          <CharString index="112">
            -192 -21 165 return
          </CharString>
          <CharString index="113">
            82 hmoveto
            259 hlineto
            135 105 80 148 146 -103 80 -139 hvcurveto
            -144 256 -113 hlineto
            return
          </CharString>
          <CharString index="114">
            108 vstem
            136 -123 rmoveto
            33 122 rlineto
            130 -108 -129 35 vlineto
            -22 -123 rlineto
            return
          </CharString>
          <CharString index="115">
            66 286 66 hstem
            34 69 272 68 vstem
            239 return
          </CharString>
          <CharString index="116">
            198 -20 hstem
            return
          </CharString>
          <CharString index="117">
            -95 callgsubr
            endchar
          </CharString>
          <CharString index="118">
            -364 243 137 hstem
            61 91 vstem
            152 243 rmoveto
            137 -91 -137 vlineto
            endchar
          </CharString>
          <CharString index="119">
            24 -40 -47 14 -54 hhcurveto
            -162 -107 -126 -145 -79 30 -72 55 -51 hvcurveto
            -51 -62 rlineto
            return
          </CharString>
          <CharString index="120">
            vstem
            258 615 -97 callgsubr
            return
          </CharString>
          <CharString index="121">
            -20 -53 callgsubr
            return
          </CharString>
          <CharString index="122">
            40 callsubr
            249 110 return
          </CharString>
          <CharString index="123">
            hmoveto
            210 136 141 215 196 -117 158 -229 hvcurveto
            -252 return
          </CharString>
          <CharString index="124">
            63 55 -27 60 hhcurveto
            38 42 11 18 33 hvcurveto
            -27 82 rlineto
            -11 -32 -23 -6 -25 hhcurveto
            return
          </CharString>
          <CharString index="125">
            -103 -99 -62 -46 -22 -16 vhcurveto
            43 -48 rlineto
            22 22 41 29 61 hhcurveto
            60 32 -25 -37 return
          </CharString>
          <CharString index="126">
            245 224 rmoveto
            91 6 66 65 88 hhcurveto
            88 66 -64 -92 8 hvcurveto
            endchar
          </CharString>
          <CharString index="127">
            -21 247 99 265 99 return
          </CharString>
          <CharString index="128">
            36 callsubr
            212 -20 hstem
            73 callsubr
            vstem
            return
          </CharString>
          <CharString index="129">
            77 -19 callgsubr
            return
          </CharString>
          <CharString index="130">
            -36 2 31 -25 44 hhcurveto
            return
          </CharString>
          <CharString index="131">
            21 -21 425 85 99 94 -57 94 hstemhm
            96 110 141 110 return
          </CharString>
          <CharString index="132">
            15 224 99 hstem
            531 224 rmoveto
            99 -470 -99 vlineto
            endchar
          </CharString>
          <CharString index="133">
            hstemhm
            36 114 278 243 -94 94 return
          </CharString>
          <CharString index="134">
            -20 78 callgsubr
            return
          </CharString>
          <CharString index="135">
            21 54 callgsubr
            return
          </CharString>
          <CharString index="136">
            92 730 rmoveto
            -33 -117 rlineto
            -125 108 124 -35 vlineto
            return
          </CharString>
          <CharString index="137">
            rmoveto
            35 103 rlineto
            122 -99 -122 36 vlineto
            -24 -103 rlineto
            endchar
          </CharString>
          <CharString index="138">
            101 -71 85 -113 -113 -71 -85 -101 -98 71 -86 113 return
          </CharString>
          <CharString index="139">
            77 callgsubr
            85 callgsubr
            return
          </CharString>
          <CharString index="140">
            rmoveto
            -44 callgsubr
            return
          </CharString>
          <CharString index="141">
            44 49 36 61 61 49 -36 return
          </CharString>
          <CharString index="142">
            -27 callgsubr
            hstem
            return
          </CharString>
          <CharString index="143">
            34 -7 101 521 100 return
          </CharString>
          <CharString index="144">
            -21 51 callsubr
            return
          </CharString>
          <CharString index="145">
            -191 96 116 -21 return
          </CharString>
          <CharString index="146">
            -20 hstem
            -59 callgsubr
            return
          </CharString>
          <CharString index="147">
            -20 54 callsubr
            return
          </CharString>
          <CharString index="148">
            66 352 -20 hstemhm
            33 162 -67 67 hintmask 11010000
            195 return
          </CharString>
          <CharString index="149">
            162 58 78 63 hstem
            36 62 224 64 vstem
            386 return
          </CharString>
          <CharString index="150">
            30 55 -24 60 hhcurveto
            113 72 81 153 118 -71 return
          </CharString>
          <CharString index="151">
            22 13 28 vhcurveto
            endchar
          </CharString>
          <CharString index="152">
            rmoveto
            353 -68 vlineto
            hintmask 11100000
            -3 -1 -60 -54 -48 hhcurveto
            return
          </CharString>
          <CharString index="153">
            227 -10 -77 callsubr
            return
          </CharString>
          <CharString index="154">
            -161 -21 182 76 callsubr
            83 113 return
          </CharString>
          <CharString index="155">
            18 15 hvcurveto
            -279 -93 -65 248 65 vlineto
            endchar
          </CharString>
          <CharString index="156">
            hstemhm
            -48 callsubr
            return
          </CharString>
          <CharString index="157">
            105 99 76 63 80 hvcurveto
            -173 return
          </CharString>
          <CharString index="158">
            428 100 -5 -20 return
          </CharString>
          <CharString index="159">
            -5 101 614 -20 return
          </CharString>
          <CharString index="160">
            101 517 102 return
          </CharString>
          <CharString index="161">
            hstemhm
            66 110 return
          </CharString>
          <CharString index="162">
            10 25 vvcurveto
            393 -40 callgsubr
            -73 -31 return
          </CharString>
          <CharString index="163">
            rmoveto
            -36 -28 -9 -13 -19 hvcurveto
            27 103 rlineto
            187 return
          </CharString>
          <CharString index="164">
            358 -10 81 154 70 -39 63 135 78 return
          </CharString>
          <CharString index="165">
            66 callgsubr
            23 return
          </CharString>
          <CharString index="166">
            -158 -154 -206 -207 158 -155 return
          </CharString>
          <CharString index="167">
            vlineto
            46 39 -31 -57 -55 -34 -29 -52 hvcurveto
            endchar
          </CharString>
          <CharString index="168">
            -55 callsubr
            endchar
          </CharString>
          <CharString index="169">
            339 rmoveto
            352 vlineto
            return
          </CharString>
          <CharString index="170">
            -136 -21 157 95 return
          </CharString>
          <CharString index="171">
            -84 0 78 367 78 return
          </CharString>
          <CharString index="172">
            21 -21 189 87 191 88 hstem
            74 99 return
          </CharString>
          <CharString index="173">
            -58 callsubr
            hstem
            -59 callgsubr
            return
          </CharString>
          <CharString index="174">
            122 -6 101 221 93 204 101 hstem
            return
          </CharString>
          <CharString index="175">
            -68 168 rlineto
            -106 -294 73 198 hlineto
            return
          </CharString>
          <CharString index="176">
            -10 94 -63 -21 438 94 198 -20 hstemhm
            return
          </CharString>
          <CharString index="177">
            423 rmoveto
            89 70 66 82 83 -70 66 -89 return
          </CharString>
          <CharString index="178">
            -45 -43 -49 -36 -60 -60 -50 36 44 44 49 return
          </CharString>
          <CharString index="179">
            710 rlineto
            -518 -101 344 hlineto
            endchar
          </CharString>
          <CharString index="180">
            53 117 289 120 return
          </CharString>
          <CharString index="181">
            -20 105 -22 callgsubr
            return
          </CharString>
          <CharString index="182">
            71 -66 88 hvcurveto
            57 vmoveto
            -44 return
          </CharString>
          <CharString index="183">
            99 611 -20 hstem
            return
          </CharString>
          <CharString index="184">
            rlineto
            -123 hlineto
            return
          </CharString>
          <CharString index="185">
            hstemhm
            -59 callgsubr
            return
          </CharString>
          <CharString index="186">
            156 rlineto
            -198 73 294 -107 vlineto
            return
          </CharString>
          <CharString index="187">
            hvcurveto
            -94 27 rlineto
            -48 -20 -58 -32 -59 hhcurveto
            return
          </CharString>
          <CharString index="188">
            -80 hvcurveto
            174 82 rmoveto
            60 50 -38 -44 return
          </CharString>
          <CharString index="189">
            265 -10 rmoveto
            79 65 37 71 43 hvcurveto
            return
          </CharString>
          <CharString index="190">
            -71 70 -105 -98 -76 -63 -81 hvcurveto
            173 return
          </CharString>
          <CharString index="191">
            hstem
            32 117 return
          </CharString>
          <CharString index="192">
            hstem
            35 114 return
          </CharString>
        <CharString name=".notdef">
          -577 endchar
        </CharString>
        <CharString name="A">
          -66 callgsubr
          hstem
          -103 callsubr
          endchar
        </CharString>
        <CharString name="A.sc">
          14 21 -21 144 86 325 -20 hstem
          115 hmoveto
          63 144 rlineto
          234 hlineto
          64 -144 rlineto
          105 hlineto
          -245 555 rlineto
          -81 hlineto
          -247 -555 rlineto
          380 230 rmoveto
          -188 hlineto
          95 203 rlineto
          endchar
        </CharString>
        <CharString name="AE">
          69 callgsubr
          hstem
          445 120 vstem
          -25 hmoveto
          -42 callsubr
        </CharString>
        <CharString name="AEacute">
          69 callgsubr
          206 -20 hstem
          445 120 vstem
          667 916 -100 callsubr
          -602 -784 rmoveto
          -42 callsubr
        </CharString>
        <CharString name="Aacute">
          -66 callgsubr
          226 -20 hstem
          -103 callsubr
          640 vmoveto
          -105 hlineto
          -57 -110 72 -22 rlineto
          endchar
        </CharString>
        <CharString name="Abreve">
          -66 callgsubr
          104 -22 callgsubr
          219 238 hintmask 11110100
          -103 callsubr
          -114 569 rmoveto
          hintmask 11101100
          -92 callgsubr
          hintmask 11110100
          -60 callsubr
        </CharString>
        <CharString name="Acircumflex">
          -66 callgsubr
          226 -20 hstem
          -103 callsubr
          -200 517 -56 callgsubr
        </CharString>
        <CharString name="Adblgrave">
          -66 callgsubr
          227 -20 hstem
          -103 callsubr
          -56 509 10 callsubr
        </CharString>
        <CharString name="Adieresis">
          -66 callgsubr
          112 110 hstem
          204 92 85 92 vstem
          -103 callsubr
          -156 526 -97 callgsubr
          endchar
        </CharString>
        <CharString name="Agrave">
          -66 callgsubr
          227 -20 hstem
          -103 callsubr
          -138 509 -84 callsubr
        </CharString>
        <CharString name="Ainvertedbreve">
          -66 callgsubr
          175 51 hstem
          219 238 vstem
          -103 callsubr
          -114 589 rmoveto
          -92 callsubr
          -23 callsubr
          endchar
        </CharString>
        <CharString name="Amacron">
          -66 callgsubr
          140 70 hstem
          -103 callsubr
          34 554 -42 callgsubr
        </CharString>
        <CharString name="Aogonek">
          100 -167 -21 209 -48 callgsubr
          hstem
          521 66 vstem
          620 -188 rmoveto
          -51 callsubr
          -280 710 rlineto
          -98 hlineto
          -282 -710 rlineto
          119 hlineto
          74 193 rlineto
          274 hlineto
          75 -193 rlineto
          51 hlineto
          -54 -35 -25 -36 -35 -47 callgsubr
          -400 464 rmoveto
          118 305 114 -305 rlineto
          endchar
        </CharString>
        <CharString name="Aring">
          -66 callgsubr
          80 36 74 36 hstem
          249 48 81 48 vstem
          -103 callsubr
          -203 567 -85 callgsubr
          endchar
        </CharString>
        <CharString name="Aringacute">
          -66 callgsubr
          94 134 hstem
          249 48 81 48 vstem
          464 918 rmoveto
          -105 hlineto
          -53 -102 rlineto
          -35 -9 -22 -24 -36 vvcurveto
          -26 12 -20 19 -13 vhcurveto
          -273 -688 rlineto
          119 hlineto
          74 193 rlineto
          274 hlineto
          75 -193 rlineto
          118 hlineto
          -272 689 rlineto
          19 12 12 20 26 vvcurveto
          30 -16 22 -25 11 vhcurveto
          -165 -534 rmoveto
          118 305 114 -305 rlineto
          -115 508 rmoveto
          23 18 -15 -22 -21 -19 -16 -22 -23 -17 17 20 22 18 15 22 hvcurveto
          endchar
        </CharString>
        <CharString name="Atilde">
          -66 callgsubr
          111 -32 callgsubr
          hintmask 11110100
          -103 callsubr
          -51 525 -87 callgsubr
          hintmask 11101000
          -94 callsubr
          hintmask 11110100
          -56 callsubr
        </CharString>
        <CharString name="B">
          98 0 97 217 90 209 97 78 callsubr
          304 112 -85 115 hintmask 11110100
          638 -72 callsubr
        </CharString>
        <CharString name="B.sc">
          13 0 85 156 79 148 87 hstemhm
          74 99 254 98 -74 101 hintmask 11110100
          552 143 rmoveto
          72 -44 51 -69 19 vhcurveto
          hintmask 11111000
          56 22 30 52 54 vvcurveto
          70 -52 72 -85 vhcurveto
          -314 -555 290 hlineto
          hintmask 11110100
          103 85 52 91 hvcurveto
          -101 19 rmoveto
          -42 -39 -35 -48 vhcurveto
          -191 156 197 hlineto
          46 35 -37 -42 hvcurveto
          -100 306 rmoveto
          hintmask 11111000
          44 32 -29 -45 -44 -35 -30 -46 hvcurveto
          -173 148 hlineto
          endchar
        </CharString>
        <CharString name="C">
          63 callgsubr
          85 callsubr
          vstem
          35 360 -99 callsubr
          endchar
        </CharString>
        <CharString name="C.sc">
          17 -5 89 385 89 hstem
          36 101 vstem
          36 282 rmoveto
          -142 119 -145 168 96 110 46 83 39 vhcurveto
          -83 48 rlineto
          -62 -31 -69 -26 -58 hhcurveto
          -111 -79 92 102 92 64 99 124 56 67 -21 -64 32 hvcurveto
          78 53 rlineto
          72 -38 -83 49 -109 hhcurveto
          -185 -107 -142 -134 hvcurveto
          endchar
        </CharString>
        <CharString name="CR">
          -577 endchar
        </CharString>
        <CharString name="Cacute">
          63 callgsubr
          202 -20 85 callsubr
          vstem
          494 916 -100 callsubr
          -369 -424 -99 callsubr
          endchar
        </CharString>
        <CharString name="Ccaron">
          63 callgsubr
          0 79 10 callgsubr
          35 114 hintmask 10111000
          237 888 -94 callgsubr
          -260 -556 rmoveto
          -180 140 -186 199 -11 callgsubr
          vhcurveto
          -93 53 rlineto
          -83 -37 -83 -34 -69 hhcurveto
          -133 -96 123 138 hvcurveto
          hintmask 11011000
          124 78 133 148 28 callgsubr
          vhcurveto
          88 59 rlineto
          91 -46 -96 64 -128 hhcurveto
          -217 -127 -182 -172 hvcurveto
          endchar
        </CharString>
        <CharString name="Ccedilla">
          105 39 callgsubr
          36 100 518 101 hstem
          33 114 287 54 vstem
          266 -82 callgsubr
          26 40 105 8 114 58 41 98 rlinecurve
          -93 53 rlineto
          -83 -37 -83 -34 -69 hhcurveto
          -133 -96 123 138 124 78 133 148 28 callgsubr
          hvcurveto
          88 59 rlineto
          91 -46 -96 64 -128 hhcurveto
          -217 -127 -182 -172 -173 128 -178 186 -14 hvcurveto
          -45 -85 -79 callsubr
        </CharString>
        <CharString name="Ccircumflex">
          63 callgsubr
          202 -20 85 callsubr
          vstem
          292 793 -101 callsubr
          -199 -461 -99 callsubr
          endchar
        </CharString>
        <CharString name="Cdotaccent">
          63 callgsubr
          87 115 85 callsubr
          180 99 vstem
          35 360 -99 callsubr
          393 441 -54 callsubr
          endchar
        </CharString>
        <CharString name="D">
          139 0 99 512 99 hstem
          -59 callgsubr
          372 114 vstem
          332 hmoveto
          -86 callsubr
          8 callgsubr
        </CharString>
        <CharString name="D.sc">
          52 0 88 379 88 hstem
          74 99 317 101 vstem
          292 hmoveto
          181 118 110 169 153 -101 123 -198 hvcurveto
          -218 -555 hlineto
          416 279 rmoveto
          -110 -69 -81 -129 vhcurveto
          -119 379 119 hlineto
          126 72 -77 -111 hvcurveto
          endchar
        </CharString>
        <CharString name="Dcaron">
          139 0 99 512 99 0 83 123 -11 callsubr
          372 114 hintmask 10111100
          192 888 -94 callgsubr
          82 -916 rmoveto
          -86 callsubr
          -146 -82 -111 -150 vhcurveto
          -140 hlineto
          hintmask 11011100
          512 140 vlineto
          147 85 -106 -149 hvcurveto
          endchar
        </CharString>
        <CharString name="Dcroat">
          -72 callgsubr
        </CharString>
        <CharString name="Ddotbelow">
          139 84 callgsubr
          -59 callgsubr
          98 99 175 114 vstem
          389 -20 callgsubr
          42 189 rmoveto
          -86 callsubr
          8 callgsubr
        </CharString>
        <CharString name="Delta">
          46 64 callgsubr
          358 31 callgsubr
          -489 14 rmoveto
          185 483 187 -483 rlineto
          endchar
        </CharString>
        <CharString name="E">
          26 0 66 callsubr
          vstem
          192 99 rmoveto
          217 317 93 -317 202 366 99 -478 -710 487 99 vlineto
          endchar
        </CharString>
        <CharString name="E.sc">
          -45 0 88 154 81 144 88 hstem
          74 99 vstem
          173 88 rmoveto
          154 272 81 -272 144 314 88 -413 -555 421 88 vlineto
          endchar
        </CharString>
        <CharString name="Eacute">
          26 -70 callgsubr
          206 39 callsubr
          vstem
          445 916 -100 callsubr
          -163 -685 rmoveto
          217 317 93 -317 202 366 99 -478 -710 487 99 vlineto
          endchar
        </CharString>
        <CharString name="Ebreve">
          26 -70 callgsubr
          84 -22 callgsubr
          80 112 19 238 hintmask 11110110
          192 99 rmoveto
          217 317 93 -317 202 366 99 -478 -710 487 99 vlineto
          -237 746 rmoveto
          hintmask 11101110
          -92 callgsubr
          hintmask 11110110
          -60 callsubr
        </CharString>
        <CharString name="Ecaron">
          26 0 99 0 217 0 93 0 202 0 99 0 83 123 -11 callsubr
          hintmask 01010111
          187 888 -94 callgsubr
          -53 -817 rmoveto
          217 317 vlineto
          hintmask 10101011
          93 -317 202 366 99 -478 -710 487 99 vlineto
          endchar
        </CharString>
        <CharString name="Ecircumflex">
          26 -70 callgsubr
          206 39 callsubr
          vstem
          245 793 -101 callsubr
          5 -722 rmoveto
          217 317 93 -317 202 366 99 -478 -710 487 99 vlineto
          endchar
        </CharString>
        <CharString name="Edblgrave">
          26 -70 callgsubr
          207 39 callsubr
          vstem
          388 785 -95 callgsubr
          37 -818 rmoveto
          217 317 93 -317 202 366 99 -478 -710 487 99 vlineto
          endchar
        </CharString>
        <CharString name="Edieresis">
          26 -70 callgsubr
          92 110 hstem
          -59 callgsubr
          4 92 85 92 vstem
          288 802 -97 callgsubr
          -181 -703 rmoveto
          217 317 93 -317 202 366 99 -478 -710 487 99 vlineto
          endchar
        </CharString>
        <CharString name="Edotaccent">
          26 -70 callgsubr
          91 115 hstem
          -59 callgsubr
          88 99 vstem
          192 99 rmoveto
          217 317 93 -317 202 366 99 -478 -710 487 99 vlineto
          -188 702 -54 callsubr
          endchar
        </CharString>
        <CharString name="Edotbelow">
          26 -31 callgsubr
          73 66 callsubr
          78 99 vstem
          192 99 rmoveto
          217 317 93 -317 202 366 99 -478 -710 487 99 vlineto
          -198 -288 -78 callgsubr
          endchar
        </CharString>
        <CharString name="Egrave">
          26 -70 callgsubr
          207 39 callsubr
          vstem
          192 99 rmoveto
          217 317 93 -317 202 366 99 -478 -710 487 99 vlineto
          -261 686 -84 callsubr
        </CharString>
        <CharString name="Einvertedbreve">
          26 -70 callgsubr
          84 -4 callgsubr
          80 112 18 238 hintmask 11101110
          329 865 rmoveto
          hintmask 11110110
          -92 callsubr
          hintmask 11101110
          -23 callsubr
          -137 -766 rmoveto
          217 317 93 -317 202 366 99 -478 -710 487 99 vlineto
          endchar
        </CharString>
        <CharString name="Emacron">
          26 -70 callgsubr
          120 70 hstem
          -59 callgsubr
          vstem
          192 99 rmoveto
          217 317 93 -317 202 366 99 -478 -710 487 99 vlineto
          -88 731 -42 callgsubr
        </CharString>
        <CharString name="Eng">
          179 -191 96 116 -34 callsubr
          371 113 hintmask 11101100
          566 21 rmoveto
          -40 vlineto
          -44 -36 -39 callsubr
          -17 -38 callgsubr
          45 -14 47 hhcurveto
          91 81 71 105 hvcurveto
          724 -113 -505 vlineto
          hintmask 11011100
          -397 506 rlineto
          -86 -710 112 498 hlineto
          endchar
        </CharString>
        <CharString name="Eogonek">
          26 -167 -21 188 66 callsubr
          229 66 vstem
          192 99 rmoveto
          217 317 93 -317 202 366 99 -478 -710 420 vlineto
          -54 -35 -25 -36 -35 -47 callgsubr
          -51 callsubr
          99 vlineto
          endchar
        </CharString>
        <CharString name="Eth">
          -72 callgsubr
        </CharString>
        <CharString name="Etilde">
          26 -70 callgsubr
          91 -32 callgsubr
          80 112 hintmask 11110110
          192 99 rmoveto
          217 317 93 -317 202 366 99 -478 -710 487 99 vlineto
          -174 702 -87 callgsubr
          hintmask 11101010
          -94 callsubr
          hintmask 11110110
          -56 callsubr
        </CharString>
        <CharString name="Euro">
          220 -6 101 156 62 56 62 182 101 hstem
          78 431 rmoveto
          -26 -62 rlineto
          72 -9 hlineto
          -16 1 -16 2 -15 vhcurveto
          -68 hlineto
          -26 -62 rlineto
          107 hlineto
          -139 43 121 -118 159 hhcurveto
          -11 callgsubr
          hvcurveto
          -93 53 rlineto
          -83 -37 -83 -34 -69 hhcurveto
          -98 -77 66 90 -35 hvcurveto
          218 hlineto
          26 62 rlineto
          -260 hlineto
          -2 14 -1 14 15 vvcurveto
          13 271 vlineto
          25 62 rlineto
          -287 hlineto
          97 25 74 85 118 hhcurveto
          28 callgsubr
          hvcurveto
          88 59 rlineto
          91 -46 -96 64 -128 hhcurveto
          -187 -121 -136 -147 -29 hvcurveto
          endchar
        </CharString>
        <CharString name="F">
          2 21 -21 306 93 212 99 hstem
          -59 callgsubr
          vstem
          192 hmoveto
          306 302 93 -302 212 361 99 -473 -710 vlineto
          endchar
        </CharString>
        <CharString name="F.sc">
          -67 21 -21 233 82 152 88 hstem
          74 99 vstem
          173 hmoveto
          233 259 82 -259 152 309 88 -408 -555 vlineto
          endchar
        </CharString>
        <CharString name="G">
          -34 callgsubr
          26 callsubr
          hintmask 01111010
          74 callgsubr
          hintmask 10111100
          -243 -83 hlineto
          hintmask 10111010
          -101 callgsubr
          endchar
        </CharString>
        <CharString name="G.alt">
          149 -5 101 170 100 248 101 hstem
          36 114 vstem
          381 -5 rmoveto
          183 127 145 168 10 hvcurveto
          5 1 50 3 vvcurveto
          -297 -100 174 hlineto
          -87 -19 -80 -83 -109 hhcurveto
          -140 -81 133 125 129 83 131 138 99 61 -71 -49 29 hvcurveto
          89 71 rlineto
          92 -55 -96 58 -120 hhcurveto
          -205 -137 -172 -184 -187 142 -177 203 hvcurveto
          endchar
        </CharString>
        <CharString name="G.sc">
          43 -4 89 -64 -21 210 73 187 89 hstemhm
          36 101 225 211 -84 84 hintmask 01111010
          489 hmoveto
          84 283 hlineto
          hintmask 10111100
          -211 -73 hlineto
          hintmask 10111010
          127 -47 hlineto
          -52 -49 -55 -26 -59 hhcurveto
          -108 -81 85 107 102 72 91 109 68 60 -30 -58 31 hvcurveto
          76 56 rlineto
          72 -39 -79 49 -113 hhcurveto
          -164 -122 -127 -152 -147 124 -137 158 65 55 22 46 51 hvcurveto
          endchar
        </CharString>
        <CharString name="Gacute">
          -34 callgsubr
          201 -20 26 callsubr
          hintmask 01111101
          493 916 -100 callsubr
          174 -784 rmoveto
          94 359 hlineto
          hintmask 10111110
          -243 -83 hlineto
          hintmask 10111101
          -101 callgsubr
          endchar
        </CharString>
        <CharString name="Gbreve">
          -34 callgsubr
          79 -22 callgsubr
          36 114 105 238 -65 243 -94 94 hintmask 0111101101000000
          74 callgsubr
          hintmask 1011101010000000
          -243 -83 hlineto
          hintmask 1011101101000000
          -101 callgsubr
          hintmask 0111101101000000
          -203 757 rmoveto
          hintmask 1011011101000000
          -92 callgsubr
          hintmask 1011101101000000
          -60 callsubr
        </CharString>
        <CharString name="Gcircumflex">
          -34 callgsubr
          201 -20 26 callsubr
          hintmask 01111101
          288 793 -101 callsubr
          347 -821 rmoveto
          94 359 hlineto
          hintmask 10111110
          -243 -83 hlineto
          hintmask 10111101
          -101 callgsubr
          endchar
        </CharString>
        <CharString name="Gcommaaccent">
          142 5 callsubr
          43 26 -21 96 180 0 83 255 101 hstemhm
          36 114 173 95 10 243 -94 94 hintmask 1110111101000000
          383 -89 callsubr
          245 213 rmoveto
          94 359 hlineto
          hintmask 1110111110000000
          -243 -83 hlineto
          hintmask 1111011101000000
          -101 callgsubr
          endchar
        </CharString>
        <CharString name="Gdotaccent">
          -34 callgsubr
          86 115 hstemhm
          36 114 174 99 5 243 -94 94 hintmask 0111111010000000
          74 callgsubr
          hintmask 1011111100000000
          -243 -83 hlineto
          hintmask 1011111010000000
          -101 callgsubr
          hintmask 0111111010000000
          -154 713 -54 callsubr
          endchar
        </CharString>
        <CharString name="H">
          166 21 -21 313 100 297 39 callsubr
          358 -44 callsubr
          550 710 -64 callsubr
          endchar
        </CharString>
        <CharString name="H.sc">
          75 21 -21 240 88 227 -20 hstem
          74 99 305 100 vstem
          478 555 rmoveto
          -227 -305 227 -99 -555 99 240 305 -240 100 555 vlineto
          endchar
        </CharString>
        <CharString name="Hbar">
          21 -21 313 100 133 56 108 -20 hstem
          85 112 358 -44 callsubr
          555 710 rmoveto
          -108 -358 108 -112 -108 -51 -56 51 -546 112 313 358 -313 113 546 50 56 -50 108 vlineto
          -471 -297 rmoveto
          133 358 -133 vlineto
          endchar
        </CharString>
        <CharString name="Hcircumflex">
          166 21 -21 313 100 297 -20 225 39 callsubr
          358 -44 callsubr
          289 792 -101 callsubr
          319 -110 -64 callsubr
          endchar
        </CharString>
        <CharString name="Hdotbelow">
          166 23 callgsubr
          313 100 297 39 callsubr
          129 99 130 -44 callsubr
          550 710 -64 callsubr
          -243 -899 -78 callgsubr
          endchar
        </CharString>
        <CharString name="I">
          -305 21 -21 710 -55 callgsubr
          endchar
        </CharString>
        <CharString name="I.sc">
          -330 -6 callgsubr
          74 99 vstem
          173 hmoveto
          555 -99 -555 vlineto
          endchar
        </CharString>
        <CharString name="IJ">
          183 -11 101 -69 -21 710 -11 callsubr
          383 113 hintmask 01111000
          -76 callgsubr
          202 33 rmoveto
          hintmask 10111000
          -88 callgsubr
          endchar
        </CharString>
        <CharString name="Iacute">
          -41 callsubr
          226 -55 callgsubr
          171 916 -17 callsubr
        </CharString>
        <CharString name="Ibreve">
          -41 callsubr
          104 -22 callgsubr
          17 238 -175 112 hintmask 11100100
          -76 callgsubr
          56 845 rmoveto
          hintmask 11011000
          -92 callgsubr
          hintmask 11101000
          -60 callsubr
        </CharString>
        <CharString name="Icircumflex">
          -41 callsubr
          226 -55 callgsubr
          -29 793 -56 callgsubr
        </CharString>
        <CharString name="Idblgrave">
          -41 callsubr
          227 -55 callgsubr
          125 785 10 callsubr
        </CharString>
        <CharString name="Idieresis">
          -41 callsubr
          112 110 hstemhm
          2 49 callgsubr
          -76 callgsubr
          hintmask 11110100
          14 802 -97 callgsubr
          endchar
        </CharString>
        <CharString name="Idotaccent">
          -41 callsubr
          111 115 hstem
          -59 callgsubr
          vstem
          -76 callgsubr
          105 801 -54 callsubr
          endchar
        </CharString>
        <CharString name="Idotbelow">
          -305 23 callgsubr
          710 -55 callgsubr
          103 -20 callgsubr
          endchar
        </CharString>
        <CharString name="Igrave">
          -41 callsubr
          227 -55 callgsubr
          32 785 -84 callsubr
        </CharString>
        <CharString name="Iinvertedbreve">
          -41 callsubr
          104 -4 callgsubr
          15 238 -173 112 hintmask 11010100
          -76 callgsubr
          54 865 rmoveto
          hintmask 11100100
          29 25 -30 -41 4 hvcurveto
          hintmask 11101000
          61 hlineto
          70 -51 52 -68 -68 -51 -52 -70 vhcurveto
          61 hlineto
          hintmask 11011000
          -23 callsubr
          endchar
        </CharString>
        <CharString name="Imacron">
          -41 callsubr
          140 70 hstem
          -59 callgsubr
          vstem
          -76 callgsubr
          205 830 -42 callgsubr
        </CharString>
        <CharString name="Iogonek">
          -304 -167 -21 209 -52 callgsubr
          hstemhm
          46 66 -32 112 hintmask 11110000
          145 57 callgsubr
          hintmask 11101000
          28 24 27 56 34 vhcurveto
          710 -112 -710 45 vlineto
          hintmask 11110000
          -54 -35 -25 -36 -35 -47 callgsubr
          endchar
        </CharString>
        <CharString name="Itilde">
          -41 callsubr
          111 -32 callgsubr
          80 112 hintmask 11101100
          -76 callgsubr
          119 801 -87 callgsubr
          hintmask 11010100
          -94 callsubr
          hintmask 11101100
          -56 callsubr
        </CharString>
        <CharString name="J">
          -89 -11 101 620 -20 hstem
          303 -44 callsubr
          10 33 rmoveto
          -88 callgsubr
          endchar
        </CharString>
        <CharString name="J.sc">
          -143 -8 88 475 -20 hstem
          267 99 vstem
          15 25 rmoveto
          -22 36 45 -11 52 hhcurveto
          195 23 112 169 hvcurveto
          282 -99 -282 vlineto
          -129 -13 -64 -106 -49 -42 16 11 -18 vhcurveto
          endchar
        </CharString>
        <CharString name="Jcircumflex">
          -89 -11 101 620 -20 226 -20 hstem
          303 -44 callsubr
          276 793 -101 callsubr
          -208 -788 rmoveto
          -88 callgsubr
          endchar
        </CharString>
        <CharString name="K">
          83 21 -34 callsubr
          hintmask 10110000
          192 hmoveto
          -13 callgsubr
          hintmask 11010000
          365 -112 -709 vlineto
          endchar
        </CharString>
        <CharString name="K.sc">
          6 -6 callgsubr
          74 99 vstem
          173 hmoveto
          168 vlineto
          94 84 208 -252 rlineto
          106 hlineto
          -254 309 240 246 rlineto
          -106 hlineto
          -288 -279 rlineto
          279 -99 -555 vlineto
          endchar
        </CharString>
        <CharString name="Kcommaaccent">
          83 -192 -21 234 -34 callsubr
          101 95 hintmask 11011100
          353 -89 callsubr
          -110 213 rmoveto
          -13 callgsubr
          hintmask 11101100
          365 -112 -709 vlineto
          endchar
        </CharString>
        <CharString name="L">
          7 64 callgsubr
          80 112 vstem
          573 hmoveto
          -33 callgsubr
          endchar
        </CharString>
        <CharString name="L.sc">
          -88 0 88 467 -20 hstem
          74 99 vstem
          475 hmoveto
          88 -302 467 -99 -555 vlineto
          endchar
        </CharString>
        <CharString name="Lacute">
          7 0 99 611 -20 226 39 callsubr
          vstem
          468 916 -100 callsubr
          195 -784 rmoveto
          -33 callgsubr
          endchar
        </CharString>
        <CharString name="Lcaron">
          7 0 99 631 39 callsubr
          vstem
          492 730 -100 callsubr
          171 -598 rmoveto
          -33 callgsubr
          endchar
        </CharString>
        <CharString name="Lcommaaccent">
          7 5 callsubr
          48 0 99 611 -11 callsubr
          92 95 hintmask 11011100
          344 -89 callsubr
          280 213 rmoveto
          hintmask 10111100
          -33 callgsubr
          endchar
        </CharString>
        <CharString name="Ldot">
          7 0 99 238 137 236 39 callsubr
          174 91 vstem
          573 hmoveto
          -33 callgsubr
          377 337 rmoveto
          137 -91 -137 vlineto
          endchar
        </CharString>
        <CharString name="Lslash">
          15 64 callgsubr
          88 112 vstem
          581 hmoveto
          99 -381 255 vlineto
          156 110 -29 60 -127 -89 rlineto
          275 -112 -353 vlineto
          -84 -59 30 -61 54 38 rlineto
          -275 vlineto
          endchar
        </CharString>
        <CharString name="M">
          293 -24 callsubr
          80 112 485 -44 callsubr
          790 -29 callgsubr
        </CharString>
        <CharString name="M.sc">
          184 -6 callgsubr
          74 99 414 100 vstem
          687 hmoveto
          555 -106 vlineto
          -200 -325 -200 325 rlineto
          -107 -555 99 380 hlineto
          180 -285 rlineto
          55 hlineto
          179 285 rlineto
          -380 vlineto
          endchar
        </CharString>
        <CharString name="N">
          190 21 -34 callsubr
          382 113 hintmask 11011000
          594 hmoveto
          -44 callgsubr
          hintmask 10111000
          -70 callsubr
          endchar
        </CharString>
        <CharString name="N.sc">
          95 -6 callgsubr
          74 99 325 100 vstem
          516 hmoveto
          82 555 -100 -378 hlineto
          -347 378 rlineto
          -77 -555 99 370 hlineto
          endchar
        </CharString>
        <CharString name="NULL">
          -577 endchar
        </CharString>
        <CharString name="Nacute">
          19 callgsubr
          499 915 -100 callsubr
          185 -783 33 callsubr
          -70 callsubr
          endchar
        </CharString>
        <CharString name="Ncaron">
          19 callgsubr
          241 887 -94 callgsubr
          295 -915 33 callsubr
          -70 callsubr
          endchar
        </CharString>
        <CharString name="Ncommaaccent">
          190 -192 -21 234 -34 callsubr
          141 95 146 113 hintmask 11101110
          393 -89 callsubr
          252 213 33 callsubr
          hintmask 11011110
          -70 callsubr
          endchar
        </CharString>
        <CharString name="Ndotaccent">
          190 -78 callsubr
          110 115 hstem
          -59 callgsubr
          142 99 141 -44 callsubr
          433 800 -54 callsubr
          260 -800 33 callsubr
          -70 callsubr
          endchar
        </CharString>
        <CharString name="Ntilde">
          190 -78 callsubr
          110 -32 callgsubr
          80 112 382 113 hintmask 11101110
          594 hmoveto
          -44 callgsubr
          -70 callsubr
          255 300 -87 callgsubr
          hintmask 11010110
          -94 callsubr
          hintmask 11101110
          -56 callsubr
        </CharString>
        <CharString name="O">
          -16 callsubr
          -21 callsubr
          -93 callgsubr
          endchar
        </CharString>
        <CharString name="O.sc">
          74 -4 89 384 89 hstem
          36 101 377 101 vstem
          325 -4 rmoveto
          168 122 133 147 140 -115 142 -173 -167 -124 -133 -147 -143 117 -139 172 hvcurveto
          -188 281 rmoveto
          94 70 98 119 114 74 -92 -99 -95 -69 -98 -118 -117 -73 93 99 vhcurveto
          endchar
        </CharString>
        <CharString name="OE">
          532 -5 104 -78 -21 312 99 200 99 5 -20 hstemhm
          35 114 444 117 hintmask 10110110
          710 99 rmoveto
          213 301 99 -301 200 355 99 -468 -132 vlineto
          hintmask 10101110
          77 -44 -80 60 -100 hhcurveto
          -194 -144 -171 -189 -182 136 -178 200 98 83 59 78 45 hvcurveto
          hintmask 01110110
          -132 477 vlineto
          hintmask 10110110
          99 vlineto
          -702 -3 rmoveto
          -137 -86 125 134 128 83 131 139 134 88 -124 -134 -129 -82 -131 -139 hvcurveto
          endchar
        </CharString>
        <CharString name="Oacute">
          -16 callsubr
          201 27 callgsubr
          493 916 -100 callsubr
          -28 -789 -105 callgsubr
        </CharString>
        <CharString name="Obreve">
          -16 callsubr
          79 -22 callgsubr
          35 114 110 238 104 115 hintmask 11101110
          -93 callgsubr
          229 490 rmoveto
          hintmask 11011110
          -92 callgsubr
          hintmask 11101110
          -60 callsubr
        </CharString>
        <CharString name="Ocircumflex">
          -16 callsubr
          201 27 callgsubr
          291 793 -101 callsubr
          142 -826 -105 callgsubr
        </CharString>
        <CharString name="Odblgrave">
          25 callgsubr
          432 785 -95 callgsubr
          176 -922 -105 callgsubr
        </CharString>
        <CharString name="Odieresis">
          -16 callsubr
          87 110 85 callsubr
          94 92 85 92 89 115 vstem
          335 802 -97 callgsubr
          -45 -807 -105 callgsubr
        </CharString>
        <CharString name="Odotbelow">
          -31 callgsubr
          68 53 callsubr
          85 callsubr
          176 99 177 115 vstem
          424 -20 callgsubr
          50 184 -105 callgsubr
        </CharString>
        <CharString name="Ograve">
          25 callgsubr
          -93 callgsubr
          205 430 -84 callsubr
        </CharString>
        <CharString name="Ohungarumlaut">
          25 callgsubr
          400 917 -71 callsubr
          -88 -790 -105 callgsubr
        </CharString>
        <CharString name="Oinvertedbreve">
          -16 callsubr
          79 -4 callgsubr
          35 114 109 238 105 115 hintmask 11011110
          377 865 rmoveto
          hintmask 11101110
          -92 callsubr
          hintmask 11011110
          -23 callsubr
          -2 -870 -105 callgsubr
        </CharString>
        <CharString name="Omacron">
          -16 callsubr
          115 70 -21 callsubr
          527 830 rmoveto
          70 -296 -70 vlineto
          144 -835 -105 callgsubr
        </CharString>
        <CharString name="Omega">
          -75 callgsubr
        </CharString>
        <CharString name="Oogonek">
          -169 -21 187 99 517 102 85 callsubr
          109 66 277 115 vstem
          357 -190 58 callsubr
          26 54 34 vhcurveto
          183 14 132 162 181 vvcurveto
          178 -136 183 -203 -196 -146 -171 -189 -170 119 -167 182 -20 vhcurveto
          -53 -35 -25 -36 -35 -47 callgsubr
          -208 545 rmoveto
          128 84 130 143 136 89 -123 -135 -127 -82 -132 -143 -139 -88 125 134 vhcurveto
          endchar
        </CharString>
        <CharString name="Oslash">
          174 -5 101 -75 -21 613 102 -5 -20 49 callsubr
          hintmask 10011100
          558 710 rmoveto
          -25 -36 rlineto
          hintmask 01101100
          -6 callsubr
          hintmask 10011100
          -2 callgsubr
          hintmask 10101100
          -47 callsubr
          endchar
        </CharString>
        <CharString name="Oslashacute">
          174 -5 101 -75 -21 613 102 -5 -20 226 -20 49 callsubr
          hintmask 10011110
          558 710 rmoveto
          -25 -36 rlineto
          hintmask 01101110
          -6 callsubr
          hintmask 10011110
          -2 callgsubr
          hintmask 10101110
          -47 callsubr
          -110 561 -17 callsubr
        </CharString>
        <CharString name="Otilde">
          -16 callsubr
          86 66 -23 67 5 -20 49 callsubr
          hintmask 11101110
          -93 callgsubr
          292 446 -87 callgsubr
          hintmask 11010110
          -94 callsubr
          hintmask 11101110
          -56 callsubr
        </CharString>
        <CharString name="P">
          46 21 72 callgsubr
          292 114 vstem
          192 -43 callgsubr
        </CharString>
        <CharString name="P.sc">
          -28 65 callsubr
          248 101 vstem
          173 hmoveto
          189 163 vlineto
          111 75 89 94 90 -80 93 -111 hvcurveto
          -257 -555 hlineto
          99 467 rmoveto
          152 hlineto
          51 45 -37 -58 -57 -37 -39 -54 hvcurveto
          -157 hlineto
          endchar
        </CharString>
        <CharString name="Q">
          173 -5 101 -75 -21 614 101 49 callsubr
          hintmask 01111000
          606 hmoveto
          108 hlineto
          -93 106 rlineto
          59 66 36 88 94 vvcurveto
          178 -136 183 -203 -196 -146 -171 -189 vhcurveto
          hintmask 10111000
          -182 137 -177 203 -1 vhcurveto
          69 63 21 36 53 hvcurveto
          hintmask 01111000
          hintmask 10111000
          -184 44 rmoveto
          -139 -88 125 134 128 84 131 143 136 89 -124 -135 -59 -18 -61 -34 -47 hvcurveto
          -51 59 rlineto
          -108 hlineto
          101 -117 rlineto
          -21 -32 -39 -13 -44 hhcurveto
          endchar
        </CharString>
        <CharString name="Q.sc">
          74 -4 89 -89 204 -179 -21 470 89 hstemhm
          36 101 377 101 hintmask 00111100
          523 hmoveto
          96 hlineto
          -81 86 rlineto
          48 51 29 68 71 vvcurveto
          140 -115 143 -173 -167 -124 -134 -147 vhcurveto
          hintmask 10011100
          -143 117 -139 172 60 54 17 28 45 vhcurveto
          hintmask 00111100
          hintmask 10011100
          -157 44 rmoveto
          -117 -73 93 99 94 70 99 119 114 74 -93 -99 -44 -14 -44 -27 -35 hvcurveto
          hintmask 01011100
          -42 45 rlineto
          -96 hlineto
          85 -91 rlineto
          hintmask 10011100
          -15 -26 -31 -9 -36 hhcurveto
          endchar
        </CharString>
        <CharString name="R">
          84 21 72 callgsubr
          303 114 vstem
          192 hmoveto
          -99 callgsubr
          endchar
        </CharString>
        <CharString name="R.sc">
          7 65 callsubr
          257 101 vstem
          173 hmoveto
          189 139 vlineto
          133 -189 rlineto
          114 hlineto
          -146 209 rlineto
          71 24 47 67 72 vvcurveto
          90 -79 93 -111 vhcurveto
          -267 -555 hlineto
          99 467 rmoveto
          161 hlineto
          52 44 -41 -54 -53 -38 -43 -53 hvcurveto
          -166 hlineto
          endchar
        </CharString>
        <CharString name="Racute">
          -8 callgsubr
          207 39 callsubr
          303 114 vstem
          434 917 -100 callsubr
          -152 -785 rmoveto
          -99 callgsubr
          endchar
        </CharString>
        <CharString name="Rcaron">
          -8 callgsubr
          0 84 123 -11 callsubr
          303 114 hintmask 11011110
          175 889 -94 callgsubr
          -41 -917 rmoveto
          247 164 vlineto
          154 -247 rlineto
          127 hlineto
          -167 270 rlineto
          84 27 55 87 95 vvcurveto
          114 -92 117 -128 vhcurveto
          -309 -710 hlineto
          hintmask 11101110
          112 611 rmoveto
          190 hlineto
          59 54 -59 -73 -72 -44 -61 -63 hvcurveto
          -196 hlineto
          endchar
        </CharString>
        <CharString name="Rcommaaccent">
          84 -192 -21 234 72 callgsubr
          94 95 114 114 vstem
          346 -89 callsubr
          -103 213 rmoveto
          -99 callgsubr
          endchar
        </CharString>
        <CharString name="Rdblgrave">
          -8 callgsubr
          207 39 callsubr
          303 114 vstem
          379 785 -95 callgsubr
          46 -917 rmoveto
          -99 callgsubr
          endchar
        </CharString>
        <CharString name="Rdotbelow">
          84 -189 116 94 72 callgsubr
          90 99 114 114 vstem
          192 hmoveto
          -99 callgsubr
          189 -535 -78 callgsubr
          endchar
        </CharString>
        <CharString name="Rinvertedbreve">
          -8 callgsubr
          84 -4 callgsubr
          80 112 12 238 53 114 hintmask 11101111
          323 865 rmoveto
          hintmask 11110111
          -92 callsubr
          hintmask 11101111
          -23 callsubr
          -131 -865 rmoveto
          -99 callgsubr
          endchar
        </CharString>
        <CharString name="S">
          36 callsubr
          hstem
          73 callsubr
          vstem
          551 635 -102 callgsubr
          61 callsubr
        </CharString>
        <CharString name="S.sc">
          -49 -6 89 388 88 hstem
          51 103 235 107 vstem
          472 496 rmoveto
          36 -51 -70 27 -82 hhcurveto
          -122 -96 -59 -110 -89 58 -35 118 -29 hvcurveto
          101 -24 61 -15 -51 vvcurveto
          -42 -41 -22 -70 -92 -80 38 32 -33 vhcurveto
          -45 -86 rlineto
          -46 68 89 -27 91 hhcurveto
          120 100 46 117 101 -76 33 -120 28 hvcurveto
          -98 22 -48 13 48 vvcurveto
          43 36 26 77 70 65 -31 -25 26 vhcurveto
          endchar
        </CharString>
        <CharString name="Sacute">
          21 callsubr
          433 927 -100 callsubr
          208 -160 -102 callgsubr
          61 callsubr
        </CharString>
        <CharString name="Scaron">
          36 callsubr
          0 89 10 callgsubr
          73 callsubr
          hintmask 10111100
          175 899 -94 callgsubr
          318 -292 -102 callgsubr
          hintmask 11011100
          61 callsubr
        </CharString>
        <CharString name="Schwa">
          164 -5 100 209 92 217 102 hstem
          24 122 vstem
          366 -5 rmoveto
          197 142 165 196 192 -143 167 -193 -131 -119 -73 -108 -52 hvcurveto
          110 -43 rlineto
          72 23 79 50 84 hhcurveto
          111 94 -89 -128 13 hvcurveto
          -554 hlineto
          -2 -10 -1 -21 -18 vvcurveto
          -185 145 -167 197 vhcurveto
          3 100 rmoveto
          -118 -96 90 119 -9 hvcurveto
          436 hlineto
          -121 -10 -89 -88 -114 hhcurveto
          endchar
        </CharString>
        <CharString name="Scircumflex">
          21 callsubr
          233 804 -101 callsubr
          376 -197 -102 callgsubr
          61 callsubr
        </CharString>
        <CharString name="Sdotbelow">
          34 -31 callgsubr
          66 101 521 100 hstem
          53 117 84 99 106 120 vstem
          551 635 -102 callgsubr
          -55 callsubr
          -147 -732 -78 callgsubr
          endchar
        </CharString>
        <CharString name="T">
          39 21 82 callgsubr
          601 710 -37 callgsubr
        </CharString>
        <CharString name="T.sc">
          -34 21 -21 467 88 hstem
          222 100 vstem
          524 555 rmoveto
          -505 -88 203 -467 100 467 202 hlineto
          endchar
        </CharString>
        <CharString name="Tbar">
          66 21 -21 332 56 223 99 hstem
          265 -44 callsubr
          614 710 rmoveto
          -586 -99 237 -223 -201 -56 201 -332 113 332 201 56 -201 223 236 hlineto
          endchar
        </CharString>
        <CharString name="Tcaron">
          39 21 -21 611 99 0 83 10 callgsubr
          252 113 hintmask 10111000
          169 888 -94 callgsubr
          374 -206 rmoveto
          -586 hlineto
          hintmask 11011000
          -99 237 -611 113 611 236 vlineto
          endchar
        </CharString>
        <CharString name="Tdotbelow">
          39 -189 116 94 82 callgsubr
          355 -20 callgsubr
          345 899 -37 callgsubr
        </CharString>
        <CharString name="Thorn">
          27 21 -21 114 100 264 99 133 39 callsubr
          276 -44 callsubr
          361 577 rmoveto
          -169 133 -112 -710 112 114 174 hlineto
          129 86 112 120 114 -92 117 -128 hvcurveto
          -363 vmoveto
          -169 264 163 hlineto
          61 52 -58 -74 -70 -43 -62 -64 hvcurveto
          endchar
        </CharString>
        <CharString name="U">
          52 callsubr
          hstem
          70 112 388 -86 callgsubr
          endchar
        </CharString>
        <CharString name="U.sc">
          76 -4 89 470 -20 hstem
          66 99 323 100 vstem
          326 85 rmoveto
          -121 -40 91 97 hvcurveto
          282 -99 -282 vlineto
          -144 69 -133 192 186 75 125 152 vhcurveto
          282 -100 -282 vlineto
          -95 -37 -93 -125 vhcurveto
          endchar
        </CharString>
        <CharString name="Uacute">
          52 callsubr
          226 -20 hstem
          70 112 388 -44 callsubr
          491 916 -100 callsubr
          -25 -688 rmoveto
          -105 callsubr
          endchar
        </CharString>
        <CharString name="Ubreve">
          52 callsubr
          104 -22 callgsubr
          70 112 76 238 74 113 hintmask 11101110
          -96 callsubr
          1 749 rmoveto
          hintmask 11011110
          -92 callgsubr
          hintmask 11101110
          -60 callsubr
        </CharString>
        <CharString name="Ucircumflex">
          52 callsubr
          226 -20 hstem
          70 112 388 -44 callsubr
          291 793 -101 callsubr
          143 -725 rmoveto
          -105 callsubr
          endchar
        </CharString>
        <CharString name="Udblgrave">
          52 callsubr
          227 -20 hstem
          70 112 388 -44 callsubr
          436 785 -95 callgsubr
          173 -821 rmoveto
          -105 callsubr
          endchar
        </CharString>
        <CharString name="Udieresis">
          52 callsubr
          112 110 hstem
          70 112 60 92 85 92 59 -44 callsubr
          334 802 -97 callgsubr
          -43 -706 rmoveto
          -105 callsubr
          endchar
        </CharString>
        <CharString name="Udotbelow">
          -31 callgsubr
          68 101 614 -20 hstem
          70 112 145 99 144 -86 callgsubr
          50 -285 -78 callgsubr
          endchar
        </CharString>
        <CharString name="Ugrave">
          -63 callsubr
          -23 689 -84 callsubr
        </CharString>
        <CharString name="Uhungarumlaut">
          -63 callsubr
          21 821 -71 callsubr
          endchar
        </CharString>
        <CharString name="Uinvertedbreve">
          52 callsubr
          104 -4 callgsubr
          70 112 75 238 75 113 hintmask 11011110
          376 865 rmoveto
          hintmask 11101110
          -92 callsubr
          hintmask 11011110
          -23 callsubr
          -769 vmoveto
          -105 callsubr
          endchar
        </CharString>
        <CharString name="Umacron">
          52 callsubr
          140 70 hstem
          70 112 388 -86 callgsubr
          149 734 -42 callgsubr
        </CharString>
        <CharString name="Uogonek">
          -169 -21 186 100 614 -20 hstem
          70 112 79 66 243 -44 callsubr
          376 96 rmoveto
          -147 -47 124 130 hvcurveto
          360 -112 -360 vlineto
          -174 71 -161 197 -18 vhcurveto
          -52 -35 -25 -35 -35 -47 callgsubr
          -66 callsubr
          28 23 26 53 33 vhcurveto
          199 13 81 155 186 vvcurveto
          360 -113 -360 vlineto
          -127 -45 -127 -149 vhcurveto
          endchar
        </CharString>
        <CharString name="Uring">
          52 callsubr
          80 36 74 36 hstem
          70 112 105 48 81 48 106 -44 callsubr
          287 843 -85 callgsubr
          1 -784 rmoveto
          -105 callsubr
          endchar
        </CharString>
        <CharString name="Utilde">
          52 callsubr
          111 -32 callgsubr
          70 112 388 113 hintmask 11101110
          -96 callsubr
          63 705 -87 callgsubr
          hintmask 11010110
          -94 callsubr
          hintmask 11101110
          -56 callsubr
        </CharString>
        <CharString name="V">
          101 -24 callsubr
          6 710 rmoveto
          285 -710 rlineto
          96 hlineto
          284 710 rlineto
          -119 hlineto
          -213 -569 -214 569 rlineto
          endchar
        </CharString>
        <CharString name="V.sc">
          16 -6 callgsubr
          9 555 rmoveto
          245 -555 rlineto
          85 hlineto
          245 555 rlineto
          -106 hlineto
          -181 -415 -182 415 rlineto
          endchar
        </CharString>
        <CharString name="W">
          474 -24 callsubr
          454 391 -96 callgsubr
          endchar
        </CharString>
        <CharString name="W.alt">
          516 -24 callsubr
          951 710 rmoveto
          -166 -542 -180 542 77 callsubr
          -175 -542 -166 542 rlineto
          -127 hlineto
          224 -710 rlineto
          117 hlineto
          189 526 193 -526 rlineto
          118 hlineto
          223 710 rlineto
          endchar
        </CharString>
        <CharString name="W.sc">
          340 -6 callgsubr
          395 302 rmoveto
          -85 -182 -194 435 rlineto
          -108 hlineto
          252 -555 rlineto
          85 hlineto
          113 239 114 -239 rlineto
          84 hlineto
          253 555 rlineto
          -109 hlineto
          -193 -435 -87 182 105 250 rlineto
          -92 hlineto
          -75 -185 -75 185 rlineto
          -92 hlineto
          endchar
        </CharString>
        <CharString name="Wacute">
          70 callgsubr
          639 916 -100 callsubr
          -95 -393 -96 callgsubr
          endchar
        </CharString>
        <CharString name="Wcircumflex">
          70 callgsubr
          439 793 -101 callsubr
          73 -430 -96 callgsubr
          endchar
        </CharString>
        <CharString name="Wdieresis">
          474 -78 callsubr
          112 110 hstem
          391 92 85 92 vstem
          483 802 -97 callgsubr
          -114 -411 -96 callgsubr
          endchar
        </CharString>
        <CharString name="Wgrave">
          474 -78 callsubr
          227 -20 hstem
          454 391 -96 callgsubr
          169 78 -84 callsubr
        </CharString>
        <CharString name="X">
          -54 callgsubr
        </CharString>
        <CharString name="X.sc">
          -9 -6 callgsubr
          6 555 rmoveto
          225 -281 -218 -274 rlineto
          110 hlineto
          161 203 162 -203 rlineto
          108 hlineto
          -217 274 224 281 rlineto
          -109 hlineto
          -168 -211 -168 211 rlineto
          endchar
        </CharString>
        <CharString name="Y">
          80 -24 callsubr
          272 112 vstem
          -88 callsubr
          endchar
        </CharString>
        <CharString name="Y.sc">
          -5 -6 callgsubr
          236 99 vstem
          10 555 rmoveto
          226 -358 rlineto
          -197 99 196 vlineto
          228 359 rlineto
          -109 hlineto
          -169 -272 -167 272 rlineto
          endchar
        </CharString>
        <CharString name="Yacute">
          80 -78 callsubr
          226 -20 hstem
          272 112 vstem
          -88 callsubr
          311 206 -17 callsubr
        </CharString>
        <CharString name="Ycircumflex">
          80 -78 callsubr
          226 -20 hstem
          272 112 vstem
          -88 callsubr
          111 83 -56 callgsubr
        </CharString>
        <CharString name="Ydieresis">
          80 -78 callsubr
          112 110 hstemhm
          194 49 callgsubr
          -88 callsubr
          hintmask 11110100
          154 92 -97 callgsubr
          endchar
        </CharString>
        <CharString name="Ygrave">
          80 -78 callsubr
          227 -20 hstem
          272 112 vstem
          -88 callsubr
          172 75 -84 callsubr
        </CharString>
        <CharString name="Ytilde">
          80 -78 callsubr
          111 -32 callgsubr
          272 112 hintmask 11101100
          -88 callsubr
          259 91 -87 callgsubr
          hintmask 11010100
          -94 callsubr
          hintmask 11101100
          -56 callsubr
        </CharString>
        <CharString name="Z">
          52 0 99 512 99 hstem
          31 -63 callgsubr
          endchar
        </CharString>
        <CharString name="Z.sc">
          -18 0 88 379 88 hstem
          34 hmoveto
          486 88 -360 hlineto
          359 391 rlineto
          76 -475 -88 359 vlineto
          -369 -391 rlineto
          endchar
        </CharString>
        <CharString name="Zacute">
          52 0 99 512 99 206 -20 hstem
          443 916 -100 callsubr
          -322 -784 rmoveto
          -61 callsubr
          endchar
        </CharString>
        <CharString name="Zcaron">
          52 0 99 512 99 0 83 10 callgsubr
          hintmask 10110000
          185 888 -94 callgsubr
          -212 -916 rmoveto
          -67 callgsubr
          vlineto
          hintmask 11010000
          -99 421 vlineto
          -431 -525 rlineto
          endchar
        </CharString>
        <CharString name="Zdotaccent">
          52 0 99 512 99 91 115 hstem
          279 99 vstem
          31 -63 callgsubr
          347 715 -54 callsubr
          endchar
        </CharString>
        <CharString name="Zdotbelow">
          52 84 callgsubr
          273 99 vstem
          31 -63 callgsubr
          341 -275 -78 callgsubr
          endchar
        </CharString>
        <CharString name="a">
          -73 callsubr
          -20 callsubr
          hintmask 10111100
          -83 callsubr
          hintmask 01111100
          -106 callgsubr
          hintmask 10111100
          -103 callgsubr
          endchar
        </CharString>
        <CharString name="a.alt">
          53 -10 94 -63 -21 438 94 hstemhm
          33 114 308 109 hintmask 10111000
          281 -10 rmoveto
          79 59 39 64 36 hvcurveto
          hintmask 01111000
          -93 109 517 -110 -93 vlineto
          64 -35 -67 44 -81 hhcurveto
          -135 -103 -121 -150 hvcurveto
          hintmask 10111000
          -149 103 -122 145 vhcurveto
          174 197 rmoveto
          -60 -28 -51 -43 -68 hhcurveto
          -94 -67 79 96 89 64 90 93 66 59 -48 -67 26 hvcurveto
          endchar
        </CharString>
        <CharString name="a.alt2">
          -20 -10 81 -50 -21 256 63 135 78 -20 callsubr
          hintmask 01111100
          497 hmoveto
          319 vlineto
          131 -81 82 -147 -78 -70 -27 -41 -62 vhcurveto
          34 -70 rlineto
          39 57 54 21 55 hhcurveto
          82 46 -47 -76 hvcurveto
          -36 vlineto
          12 -27 -49 12 -62 hhcurveto
          -113 -108 -56 -109 hvcurveto
          hintmask 10111100
          -93 76 -71 101 74 69 28 58 42 vhcurveto
          hintmask 01111100
          -76 vlineto
          -24 126 rmoveto
          hintmask 10111100
          -37 -28 -56 -18 -47 hhcurveto
          -56 -47 38 54 64 70 29 64 39 43 -8 -15 39 hvcurveto
          -69 vlineto
          -12 -8 -14 -13 -12 vhcurveto
          endchar
        </CharString>
        <CharString name="aacute">
          -73 callsubr
          198 -20 -20 callsubr
          hintmask 10111110
          -83 callsubr
          hintmask 01111110
          -106 callgsubr
          hintmask 10111110
          -103 callgsubr
          149 659 -17 callsubr
        </CharString>
        <CharString name="abreve">
          -73 callsubr
          76 -22 callgsubr
          28 104 18 238 -1 110 hintmask 1011101100000000
          -83 callsubr
          hintmask 0111101010000000
          -106 callgsubr
          hintmask 1011101010000000
          -103 callgsubr
          34 588 rmoveto
          hintmask 1011011100000000
          -92 callgsubr
          hintmask 1011101100000000
          -60 callsubr
        </CharString>
        <CharString name="acircumflex">
          -73 callsubr
          198 -20 -20 callsubr
          hintmask 10111110
          -83 callsubr
          hintmask 01111110
          -106 callgsubr
          hintmask 10111110
          -103 callgsubr
          -51 536 -56 callgsubr
        </CharString>
        <CharString name="acute">
          -334 0 callgsubr
          209 730 -17 callsubr
        </CharString>
        <CharString name="adblgrave">
          -73 callsubr
          198 -20 -20 callsubr
          hintmask 10111110
          -83 callsubr
          hintmask 01111110
          -106 callgsubr
          hintmask 10111110
          -103 callgsubr
          108 527 10 callsubr
        </CharString>
        <CharString name="adieresis">
          -73 callsubr
          83 110 hstemhm
          28 104 3 92 85 92 -17 110 hintmask 1011111100000000
          -83 callsubr
          hintmask 0111111010000000
          -106 callgsubr
          hintmask 1011111010000000
          -103 callgsubr
          -8 544 rmoveto
          -26 callsubr
          -37 callsubr
          hintmask 1011111100000000
          269 hmoveto
          -26 callsubr
          -37 callsubr
          endchar
        </CharString>
        <CharString name="ae">
          57 callsubr
          hstemhm
          28 103 hintmask 11011000
          204 -10 -75 callsubr
          hintmask 10111000
          -50 callsubr
          hintmask 11011000
          19 callsubr
        </CharString>
        <CharString name="aeacute">
          57 callsubr
          198 -20 hstemhm
          28 103 hintmask 11011100
          564 730 -100 callsubr
          -270 -608 -75 callsubr
          hintmask 10111100
          -50 callsubr
          hintmask 11011100
          19 callsubr
        </CharString>
        <CharString name="afii61352">
          579 21 -21 342 72 225 73 -2 -20 hstemhm
          84 113 381 113 82 85 198 85 hintmask 11011111
          598 hmoveto
          -44 callgsubr
          -406 512 rlineto
          -88 -710 113 500 hlineto
          760 -158 rmoveto
          113 71 86 98 hvcurveto
          hintmask 11101111
          31 callsubr
          vhcurveto
          11 callgsubr
        </CharString>
        <CharString name="agrave">
          -73 callsubr
          198 -20 -20 callsubr
          hintmask 10111110
          -83 callsubr
          hintmask 01111110
          -106 callgsubr
          hintmask 10111110
          -103 callgsubr
          10 527 -84 callsubr
        </CharString>
        <CharString name="ainvertedbreve">
          -73 callsubr
          76 -4 callgsubr
          28 104 27 238 -10 110 hintmask 1011101100000000
          -83 callsubr
          hintmask 0111101010000000
          -106 callgsubr
          hintmask 1011011010000000
          -103 callgsubr
          43 608 rmoveto
          hintmask 1011101100000000
          -92 callsubr
          hintmask 1011011100000000
          -23 callsubr
          endchar
        </CharString>
        <CharString name="amacron">
          -73 callsubr
          112 70 -20 callsubr
          hintmask 10111110
          -83 callsubr
          hintmask 01111110
          -106 callgsubr
          hintmask 10111110
          -103 callgsubr
          183 573 -42 callgsubr
        </CharString>
        <CharString name="ampersand">
          119 -10 87 -56 -21 637 82 hstemhm
          43 106 -57 101 167 101 62 90 hintmask 01101110
          693 hmoveto
          -142 148 39 61 22 78 1 90 rlinecurve
          -90 hlineto
          -61 -14 -55 -22 -46 vhcurveto
          -160 168 rlineto
          76 52 58 54 79 vvcurveto
          97 -84 54 -97 -107 -81 -68 -97 -50 22 -40 60 -68 vhcurveto
          hintmask 10110110
          -70 -49 -61 -61 -92 vvcurveto
          -113 96 -91 138 76 72 28 50 58 vhcurveto
          hintmask 01110110
          65 -68 rlineto
          hintmask 10110110
          -259 77 rmoveto
          -76 -64 47 69 53 37 41 54 39 hvcurveto
          184 -195 rlineto
          -34 -39 -47 -20 -49 hhcurveto
          hintmask 10101110
          -96 480 rmoveto
          44 36 36 51 46 34 -29 -42 -43 -38 -32 -61 -39 vhcurveto
          -54 58 -14 20 27 vvcurveto
          endchar
        </CharString>
        <CharString name="aogonek">
          -13 -167 -21 178 81 185 63 135 78 5 callgsubr
          59 -59 110 hintmask 11111100
          479 -188 rmoveto
          -51 callsubr
          94 vlineto
          hintmask 11111010
          -21 -57 callgsubr
          189 vlineto
          136 -85 77 -143 -74 -69 -23 -45 -67 vhcurveto
          34 -70 rlineto
          39 57 54 21 55 hhcurveto
          82 46 -46 -77 hvcurveto
          -36 vlineto
          15 -38 -51 9 -49 hhcurveto
          -130 -91 -67 -98 -93 76 -71 101 78 72 34 61 47 hvcurveto
          3 -33 4 -27 17 -22 29 -6 rlinecurve
          -51 -34 -24 -34 -35 -47 callgsubr
          -244 259 rmoveto
          -59 -44 40 52 55 56 38 78 40 44 -9 -14 37 hvcurveto
          -69 vlineto
          -12 -8 -15 -13 -11 vhcurveto
          -34 -26 -52 -21 -53 hhcurveto
          endchar
        </CharString>
        <CharString name="apostrophe">
          -39 0 callgsubr
          359 46 callgsubr
          endchar
        </CharString>
        <CharString name="approxequal">
          -135 146 73 -30 30 -30 75 25 73 -30 30 -30 75 hstemhm
          hintmask 10001000
          335 386 rmoveto
          -12 -9 -16 -12 -28 hhcurveto
          hintmask 10000100
          17 callgsubr
          hintmask 01010000
          43 27 -43 60 hhcurveto
          49 31 27 30 19 hvcurveto
          -49 -104 rmoveto
          -12 -9 -16 -11 -28 hhcurveto
          hintmask 00110000
          17 callgsubr
          hintmask 10010000
          43 27 -43 60 hhcurveto
          49 31 25 27 19 hvcurveto
          endchar
        </CharString>
        <CharString name="aring">
          -73 callsubr
          52 36 74 36 hstemhm
          28 104 48 48 81 48 30 110 hintmask 1011111111000000
          -83 callsubr
          hintmask 0111111111000000
          -106 callgsubr
          hintmask 1011111111000000
          -103 callgsubr
          -55 586 -85 callgsubr
          endchar
        </CharString>
        <CharString name="aringacute">
          -73 callsubr
          52 36 74 36 -36 199 hstemhm
          28 104 48 48 81 48 30 110 hintmask 1011110111100000
          -83 callsubr
          hintmask 0111110111100000
          -106 callgsubr
          hintmask 1011101111100000
          -103 callgsubr
          149 822 -100 callsubr
          -114 -104 rmoveto
          -45 36 -28 52 53 36 28 45 vhcurveto
          hintmask 1011110111100000
          46 -36 27 -53 -52 -36 -27 -46 vhcurveto
          88 37 rmoveto
          23 18 -15 -22 -21 -19 -16 -22 -23 -17 17 20 22 18 15 22 hvcurveto
          endchar
        </CharString>
        <CharString name="asciicircum">
          -8 324 -21 407 -20 hstem
          131 303 rmoveto
          154 312 151 -312 rlineto
          92 hlineto
          -197 407 rlineto
          -92 hlineto
          -198 -407 rlineto
          endchar
        </CharString>
        <CharString name="asciitilde">
          -28 232 67 -12 67 hstemhm
          hintmask 10000000
          61 232 rmoveto
          62 hlineto
          hintmask 01000000
          2 12 53 52 vhcurveto
          hintmask 10000000
          54 46 -55 70 hhcurveto
          101 32 108 10 hvcurveto
          -63 hlineto
          -4 -15 -47 -54 vhcurveto
          hintmask 01000000
          -58 -44 55 -68 hhcurveto
          hintmask 10000000
          -95 -32 -102 -20 hvcurveto
          endchar
        </CharString>
        <CharString name="asterisk">
          -240 521 -21 216 -20 hstem
          140 57 vstem
          124 500 rmoveto
          45 71 44 -71 44 30 -45 67 69 22 -15 50 -71 -29 4 76 rlineto
          -61 hlineto
          4 -76 -71 29 -16 -50 70 -22 -45 -67 rlineto
          endchar
        </CharString>
        <CharString name="at">
          266 -146 46 84 52 -36 60 165 55 114 65 98 46 hstemhm
          44 49 133 68 237 68 143 49 hintmask 1101111111000000
          420 603 rmoveto
          -197 -179 -140 -233 -221 164 -155 199 58 59 13 27 55 hvcurveto
          -16 44 rlineto
          -22 -49 -44 -16 -62 hhcurveto
          -186 -129 148 182 189 138 138 186 190 135 -144 -189 -62 -17 -126 -76 -46 -4 49 59 hvcurveto
          108 vlineto
          92 -12 115 -164 -62 -57 -18 -32 -49 vhcurveto
          22 -60 rlineto
          28 35 47 17 54 hhcurveto
          94 24 -55 -81 hvcurveto
          8 -20 -43 14 -56 hhcurveto
          -89 -97 -35 -107 hvcurveto
          hintmask 1011111111000000
          -80 54 -58 98 69 62 29 41 39 vhcurveto
          hintmask 1101111111000000
          -42 5 16 -44 70 hhcurveto
          141 11 181 57 240 -174 141 -197 hvcurveto
          54 -522 rmoveto
          hintmask 1011111111000000
          -12 -26 -35 -9 -29 hhcurveto
          -56 -34 34 47 62 53 22 65 55 45 -17 -4 18 hvcurveto
          -38 vlineto
          -32 -12 -32 -44 -21 vhcurveto
          endchar
        </CharString>
        <CharString name="atilde">
          -73 callsubr
          83 66 -23 67 5 -20 -20 callsubr
          hintmask 1011101110000000
          -83 callsubr
          hintmask 0111101110000000
          -106 callgsubr
          hintmask 1011101110000000
          -103 callgsubr
          97 544 -87 callgsubr
          hintmask 1011010110000000
          -94 callsubr
          hintmask 1011101110000000
          -56 callsubr
        </CharString>
        <CharString name="b">
          51 69 callsubr
          66 51 callgsubr
          hintmask 10110110
          348 -10 rmoveto
          140 107 120 149 144 -92 129 -140 -83 -63 -42 -66 -41 hvcurveto
          306 -37 callsubr
          hintmask 01111010
          -730 97 95 vlineto
          hintmask 10110110
          -64 37 68 -41 80 hhcurveto
          -29 94 rmoveto
          -57 -70 43 60 -16 hvcurveto
          138 vlineto
          62 28 56 51 67 hhcurveto
          91 64 -85 -94 -92 -67 -83 -96 hvcurveto
          endchar
        </CharString>
        <CharString name="backslash">
          35 -24 callsubr
          27 710 rmoveto
          436 -710 rlineto
          122 hlineto
          -435 710 rlineto
          endchar
        </CharString>
        <CharString name="bar">
          -321 -109 -21 905 -20 hstem
          81 94 vstem
          175 -130 rmoveto
          905 -94 -905 vlineto
          endchar
        </CharString>
        <CharString name="braceleft">
          -284 -10 -21 771 -20 hstemhm
          90 100 -100 155 hintmask 11010000
          245 651 rmoveto
          89 -132 vlineto
          -7 -16 -5 -25 hvcurveto
          -249 vlineto
          -24 -18 -37 -28 vhcurveto
          -78 vlineto
          26 -5 20 -26 -32 vvcurveto
          -260 vlineto
          -23 14 -7 9 vhcurveto
          132 89 hlineto
          hintmask 11100000
          -55 235 hlineto
          22 -12 27 -20 18 vhcurveto
          21 19 11 25 23 vvcurveto
          224 vlineto
          endchar
        </CharString>
        <CharString name="braceright">
          -284 -10 -21 771 -20 hstemhm
          49 154 -99 99 hintmask 11010000
          104 651 rmoveto
          -224 vlineto
          -23 10 -25 21 -19 vhcurveto
          -21 -18 -10 -27 -22 vvcurveto
          -235 vlineto
          hintmask 11100000
          -55 -89 131 hlineto
          9 14 7 23 hvcurveto
          260 vlineto
          32 19 26 27 5 vhcurveto
          78 vlineto
          -28 -18 37 24 hvcurveto
          249 vlineto
          25 -17 5 -6 vhcurveto
          -131 -89 hlineto
          endchar
        </CharString>
        <CharString name="bracketleft">
          -285 -40 89 602 89 hstemhm
          83 102 -102 163 hintmask 11010000
          246 -40 rmoveto
          89 vlineto
          hintmask 11100000
          -61 602 hlineto
          hintmask 11010000
          61 89 -163 -780 hlineto
          endchar
        </CharString>
        <CharString name="bracketright">
          -285 -40 89 602 89 hstemhm
          46 163 -102 102 hintmask 11100000
          209 -40 rmoveto
          780 -163 -89 vlineto
          hintmask 11010000
          61 -602 hlineto
          hintmask 11100000
          -61 -89 hlineto
          endchar
        </CharString>
        <CharString name="breve">
          -265 608 -22 callgsubr
          37 238 hintmask 10100000
          156 659 rmoveto
          hintmask 01100000
          -92 callgsubr
          hintmask 10100000
          -60 callsubr
        </CharString>
        <CharString name="brokenbar">
          -319 -109 -21 905 -20 hstem
          82 94 vstem
          82 269 rmoveto
          -399 94 399 vlineto
          -94 506 rmoveto
          -399 94 399 vlineto
          endchar
        </CharString>
        <CharString name="bullet">
          -218 249 198 hstem
          81 197 vstem
          278 348 rmoveto
          54 -44 45 -54 -54 -45 -45 -54 -55 45 -44 54 54 44 44 55 vhcurveto
          endchar
        </CharString>
        <CharString name="c">
          -18 -50 callgsubr
          hstem
          32 -44 callsubr
          32 262 -95 callsubr
          endchar
        </CharString>
        <CharString name="c_t">
          346 -10 103 -80 -21 446 94 -9 -20 186 52 hstemhm
          32 113 270 49 186 110 hintmask 10101111
          890 114 rmoveto
          -6 -14 -30 -15 -31 hhcurveto
          -30 -25 16 37 hvcurveto
          292 113 vlineto
          hintmask 10011111
          85 -113 vlineto
          116 -1 102 -173 -112 -59 -57 -88 -38 17 -36 16 -32 vhcurveto
          hintmask 10101111
          27 -40 -41 15 -65 hhcurveto
          -171 -99 -130 -141 -140 104 -131 167 103 92 51 83 36 hvcurveto
          -108 32 rlineto
          -45 -17 -60 -27 -47 hhcurveto
          -88 -69 78 99 93 60 84 93 53 45 -23 -47 27 hvcurveto
          107 34 rlineto
          -16 35 -50 89 65 vvcurveto
          54 27 44 65 vhcurveto
          hintmask 10011111
          91 2 -67 -99 1 hvcurveto
          -70 hlineto
          hintmask 01101111
          -85 70 -327 vlineto
          -84 58 -35 68 57 52 44 callsubr
        </CharString>
        <CharString name="cacute">
          -18 -50 callgsubr
          -4 callsubr
          -44 callsubr
          416 730 -100 callsubr
          -294 -336 -95 callsubr
          endchar
        </CharString>
        <CharString name="caron">
          -222 628 -21 123 -20 hstem
          34 702 -94 callgsubr
          endchar
        </CharString>
        <CharString name="caron.alt">
          -334 0 callgsubr
          209 730 -17 callsubr
        </CharString>
        <CharString name="ccaron">
          -18 -50 callgsubr
          0 75 10 callgsubr
          32 113 hintmask 10111000
          158 702 -94 callgsubr
          -184 -468 rmoveto
          -146 108 -126 163 110 87 56 78 34 vhcurveto
          -108 32 rlineto
          -40 -16 -54 -32 -54 hhcurveto
          -86 -71 77 101 hvcurveto
          hintmask 11011000
          103 68 73 88 52 45 -26 -44 25 vhcurveto
          107 34 rlineto
          78 -39 -80 52 -108 hhcurveto
          -165 -106 -123 -147 hvcurveto
          endchar
        </CharString>
        <CharString name="ccedilla">
          -18 39 callgsubr
          32 93 354 94 hstem
          32 113 225 54 vstem
          202 -82 callgsubr
          23 36 97 9 75 53 31 71 rlinecurve
          -108 32 rlineto
          -40 -16 -54 -32 -54 hhcurveto
          -86 -71 77 101 103 68 73 88 52 45 -26 -44 25 hvcurveto
          107 34 rlineto
          78 -39 -80 52 -108 hhcurveto
          -165 -106 -123 -147 -139 98 -121 150 -11 hvcurveto
          -42 -81 -79 callsubr
        </CharString>
        <CharString name="ccircumflex">
          -18 -50 callgsubr
          -4 callsubr
          -44 callsubr
          216 607 -101 callsubr
          -126 -373 -95 callsubr
          endchar
        </CharString>
        <CharString name="cdotaccent">
          -18 -50 callgsubr
          83 115 hstem
          32 113 107 99 vstem
          32 262 -95 callsubr
          319 353 -54 callsubr
          endchar
        </CharString>
        <CharString name="cedilla">
          -267 39 callgsubr
          65 -20 hstem
          190 54 vstem
          22 -82 callgsubr
          35 54 -45 15 -60 -114 -79 callsubr
        </CharString>
        <CharString name="cent">
          3 -99 -21 131 -21 655 -20 hstem
          41 113 122 52 vstem
          328 -120 rmoveto
          110 vlineto
          69 110 45 89 36 hvcurveto
          -107 32 -13 -38 -54 -26 -41 -5 rlinecurve
          347 vlineto
          42 -3 39 -22 24 -41 106 34 rcurveline
          -41 80 -75 46 -95 3 rrcurveto
          114 -52 -114 vlineto
          -149 -19 -86 -119 -135 vvcurveto
          -127 97 -129 138 -11 vhcurveto
          -111 vlineto
          -122 378 rmoveto
          80 45 80 77 12 vhcurveto
          -338 vlineto
          -72 17 -50 71 78 vvcurveto
          endchar
        </CharString>
        <CharString name="circumflex">
          -222 628 -21 123 -20 hstem
          92 607 -56 callgsubr
        </CharString>
        <CharString name="colon">
          -354 0 128 263 127 hstem
          66 91 vstem
          157 391 rmoveto
          127 -91 -127 vlineto
          91 -391 rmoveto
          62 callgsubr
        </CharString>
        <CharString name="colonmonetary">
          -14 -120 204 -94 94 -72 -21 447 94 -94 207 -114 -20 hstemhm
          35 113 71 53 60 53 hintmask 1001001110000000
          219 -120 rmoveto
          53 112 hlineto
          hintmask 0101001110000000
          -1 11 11 -1 12 hhcurveto
          hintmask 0011001110000000
          9 8 1 9 hhcurveto
          hintmask 1000101110000000
          -111 53 120 vlineto
          72 20 54 46 25 58 -107 32 rcurveline
          -40 -16 -54 -32 -55 hhcurveto
          -86 -70 77 101 103 68 73 87 53 45 -26 -44 25 hvcurveto
          107 34 -29 57 -51 43 -68 19 rlinecurve
          124 -53 vlineto
          hintmask 1000011110000000
          -114 vlineto
          hintmask 1001001110000000
          -9 -9 1 -9 hhcurveto
          -12 -11 -1 -1 -10 hvcurveto
          hintmask 1000101110000000
          115 -53 -126 vlineto
          -115 -34 -69 -104 -119 vvcurveto
          -118 70 -105 114 -36 vhcurveto
          endchar
        </CharString>
        <CharString name="comma">
          -356 -76 -21 225 -20 hstem
          61 99 vstem
          125 -97 30 callsubr
        </CharString>
        <CharString name="commaaccent">
          -393 5 callsubr
          -20 hstem
          59 95 vstem
          119 -89 callsubr
          endchar
        </CharString>
        <CharString name="copyright">
          261 -7 44 82 94 284 95 79 44 hstem
          45 47 88 112 454 48 vstem
          417 -7 rmoveto
          216 58 callgsubr
          -216 -214 59 callsubr
          214 hvcurveto
          44 vmoveto
          -187 -138 138 179 180 139 137 186 189 140 -137 -181 -187 -144 -129 -185 hvcurveto
          8 82 rmoveto
          109 77 64 61 26 hvcurveto
          -107 32 rlineto
          -40 -19 -47 -23 -41 hhcurveto
          -62 -69 51 91 73 46 69 83 35 47 -13 -48 23 hvcurveto
          106 34 rlineto
          76 -34 -78 46 -99 hhcurveto
          -161 -80 -119 -118 -137 106 -99 139 hvcurveto
          endchar
        </CharString>
        <CharString name="currency">
          -32 138 -21 35 72 226 73 39 -20 hstem
          85 86 204 85 vstem
          94 562 rmoveto
          -47 -47 70 -71 rlineto
          -21 -30 -11 -37 -40 vvcurveto
          -39 12 -37 21 -31 vhcurveto
          -71 -71 42 -42 73 68 rlineto
          -20 30 37 -13 44 hhcurveto
          43 37 13 20 29 hvcurveto
          73 -68 43 42 -72 70 rlineto
          22 31 12 37 40 vvcurveto
          40 -12 38 -21 30 vhcurveto
          71 70 -48 47 -70 -71 rlineto
          20 -30 -36 12 -41 hhcurveto
          -43 -36 -12 -20 -29 hvcurveto
          6 -155 rmoveto
          66 45 48 57 57 45 -47 -65 -65 -45 -49 -57 -57 -45 49 63 vhcurveto
          endchar
        </CharString>
        <CharString name="d">
          60 -10 94 -68 -21 443 94 198 -35 callsubr
          hintmask 10111010
          279 -10 -33 callsubr
          hintmask 01111010
          43 callgsubr
          hintmask 10111100
          -97 callsubr
        </CharString>
        <CharString name="d.alt">
          52 69 callsubr
          33 114 306 110 hintmask 01111100
          563 hmoveto
          730 -110 -306 vlineto
          62 -39 -64 46 -82 hhcurveto
          -136 -99 -122 -149 hvcurveto
          hintmask 10111100
          -148 104 -123 145 74 61 37 60 36 vhcurveto
          hintmask 01111100
          -87 vlineto
          188 vmoveto
          hintmask 10111100
          -59 -14 -71 -45 -58 hhcurveto
          -93 -70 79 96 91 62 88 92 61 68 -48 -65 23 hvcurveto
          endchar
        </CharString>
        <CharString name="dagger">
          -137 -109 -21 351 100 454 -20 hstem
          168 105 vstem
          273 -130 rmoveto
          351 131 100 -131 454 -105 -454 -132 -100 132 -351 vlineto
          endchar
        </CharString>
        <CharString name="daggerdbl">
          -129 -109 -21 253 99 112 99 342 -20 hstem
          172 105 vstem
          277 -130 rmoveto
          253 131 99 -131 112 131 99 -131 342 -105 -342 -132 -99 132 -112 -132 -99 132 -253 vlineto
          endchar
        </CharString>
        <CharString name="dcaron">
          60 -10 94 -68 -21 443 94 198 -35 callsubr
          hintmask 10111010
          755 730 -100 callsubr
          -386 -608 -33 callsubr
          hintmask 01111010
          43 callgsubr
          hintmask 10111100
          -97 callsubr
        </CharString>
        <CharString name="dcroat">
          60 -10 94 -68 -21 443 94 72 68 58 -35 callsubr
          hintmask 10111101
          279 -10 -33 callsubr
          hintmask 01111101
          43 callgsubr
          hintmask 10111110
          -22 -57 callgsubr
          474 66 68 -66 58 -110 -58 -105 -68 105 -180 vlineto
          62 -36 -67 46 -83 hhcurveto
          -135 -99 -123 -146 -151 105 -122 141 hvcurveto
          27 94 rmoveto
          -87 -72 79 97 91 64 87 87 64 66 -46 -67 25 hvcurveto
          -137 vlineto
          -59 -16 -66 -45 -65 hhcurveto
          endchar
        </CharString>
        <CharString name="ddotbelow">
          60 -31 callgsubr
          63 94 -68 -21 443 94 198 77 callgsubr
          115 99 92 -26 callsubr
          122 hintmask 1101111010000000
          361 -20 callgsubr
          17 179 -33 callsubr
          hintmask 1011111010000000
          43 callgsubr
          hintmask 1101111100000000
          -97 callsubr
        </CharString>
        <CharString name="degree">
          -299 533 191 hstem
          44 190 vstem
          44 631 rmoveto
          -56 41 -42 54 55 40 40 58 53 -40 40 -55 -54 -41 -40 -53 vhcurveto
          67 26 rmoveto
          7 7 10 4 11 hhcurveto
          10 12 -3 -8 6 hvcurveto
          7 -8 5 -9 -11 vvcurveto
          -11 -5 -10 -7 -7 vhcurveto
          -8 -6 -12 -4 -10 hhcurveto
          -11 -10 4 8 -7 hvcurveto
          -7 7 -5 10 11 vvcurveto
          11 5 9 7 8 vhcurveto
          endchar
        </CharString>
        <CharString name="dieresis">
          -166 615 110 hstem
          71 92 85 92 vstem
          163 615 -97 callgsubr
          endchar
        </CharString>
        <CharString name="divide">
          -54 58 114 76 88 75 115 hstem
          215 93 vstem
          308 411 rmoveto
          115 -93 -115 vlineto
          93 -353 rmoveto
          114 -93 -114 vlineto
          248 190 rmoveto
          88 -403 -88 vlineto
          endchar
        </CharString>
        <CharString name="dollar">
          51 -91 -21 105 101 520 100 101 -20 hstem
          62 117 119 37 133 120 vstem
          560 635 rmoveto
          -56 41 -75 33 -86 5 rrcurveto
          101 -52 -101 vlineto
          -132 -10 -97 -75 -130 vvcurveto
          -111 71 -42 140 -37 vhcurveto
          8 -3 9 -2 8 -2 rrcurveto
          -207 vlineto
          -96 10 -86 48 -30 32 -51 -96 rcurveline
          72 -55 89 -33 95 -6 rrcurveto
          -107 52 105 vlineto
          136 4 109 60 140 vvcurveto
          129 -90 42 -144 35 vhcurveto
          -19 4 rlineto
          207 vlineto
          78 -5 72 -39 24 -27 rrcurveto
          -41 -358 rmoveto
          -58 -48 -32 -85 -1 vhcurveto
          198 vlineto
          84 -24 49 -24 -59 vvcurveto
          -289 332 rmoveto
          57 38 36 81 4 vhcurveto
          -197 vlineto
          -80 22 -39 22 56 vvcurveto
          endchar
        </CharString>
        <CharString name="dotaccent">
          -378 615 115 hstem
          50 99 vstem
          149 615 -54 callsubr
          endchar
        </CharString>
        <CharString name="dotbelow">
          -378 -31 callgsubr
          hstem
          50 99 vstem
          149 -20 callgsubr
          endchar
        </CharString>
        <CharString name="dotlessi">
          76 callgsubr
          -28 callgsubr
          endchar
        </CharString>
        <CharString name="dotlessj">
          -335 -191 96 618 -30 callsubr
          endchar
        </CharString>
        <CharString name="e">
          -74 callgsubr
          -89 callgsubr
          endchar
        </CharString>
        <CharString name="eacute">
          -13 callsubr
          415 730 -100 callsubr
          -22 -608 -107 callgsubr
          endchar
        </CharString>
        <CharString name="ebreve">
          -74 callgsubr
          76 -22 callgsubr
          32 117 33 238 hintmask 11110110
          -104 callgsubr
          -161 358 rmoveto
          hintmask 11101110
          -92 callgsubr
          hintmask 11110110
          -60 callsubr
        </CharString>
        <CharString name="ecaron">
          18 -10 81 154 76 0 150 81 75 10 callgsubr
          32 117 hintmask 11011100
          157 702 -94 callgsubr
          88 -740 rmoveto
          110 89 56 78 36 80 callsubr
          -81 -70 62 92 -7 hvcurveto
          419 hlineto
          1 9 2 15 16 vvcurveto
          141 -103 126 -164 -164 -108 -124 -148 -146 108 -124 163 vhcurveto
          -157 311 rmoveto
          hintmask 10111100
          -90 callgsubr
          endchar
        </CharString>
        <CharString name="ecircumflex">
          -13 callsubr
          215 607 -101 callsubr
          146 -645 -107 callgsubr
          endchar
        </CharString>
        <CharString name="edblgrave">
          -13 callsubr
          367 598 -95 callgsubr
          169 -740 -107 callgsubr
          endchar
        </CharString>
        <CharString name="edieresis">
          -74 callgsubr
          83 110 84 callsubr
          17 92 85 92 13 callsubr
          -40 -625 -107 callgsubr
          endchar
        </CharString>
        <CharString name="edotaccent">
          -74 callgsubr
          83 115 84 callsubr
          102 99 -102 callsubr
          -112 314 -54 callsubr
          endchar
        </CharString>
        <CharString name="edotbelow">
          18 -31 callgsubr
          63 81 154 76 150 81 84 callsubr
          105 99 -102 callsubr
          -109 -490 -78 callgsubr
          endchar
        </CharString>
        <CharString name="egrave">
          18 -10 81 154 76 150 81 198 -20 -89 callgsubr
          -185 297 -84 callsubr
        </CharString>
        <CharString name="eight">
          -84 callgsubr
        </CharString>
        <CharString name="eight.denominator">
          -165 -5 66 130 55 103 64 hstemhm
          34 -58 callgsubr
          hintmask 1111000010000000
          377 119 1 callgsubr
          hintmask 1110100100000000
          -73 callgsubr
          hintmask 1111000010000000
          -46 -18 -42 -31 -82 callsubr
          hintmask 1110011000000000
          -71 callgsubr
          endchar
        </CharString>
        <CharString name="eight.lnum">
          -84 callgsubr
        </CharString>
        <CharString name="eight.numerator">
          -165 311 67 130 55 103 64 hstemhm
          34 -58 callgsubr
          hintmask 1111000010000000
          377 436 -31 callsubr
          -57 97 93 79 52 -27 callsubr
          -19 -41 -42 -47 18 34 vhcurveto
          endchar
        </CharString>
        <CharString name="eightinferior">
          -165 -87 66 130 55 103 64 hstemhm
          34 -58 callgsubr
          hintmask 1111000010000000
          377 37 1 callgsubr
          hintmask 1110100100000000
          -73 callgsubr
          hintmask 1111000010000000
          -46 -19 -42 -30 -82 callsubr
          hintmask 1110011000000000
          -193 171 rmoveto
          32 42 20 47 45 44 -20 -31 -33 -48 -19 -41 -42 -47 19 32 vhcurveto
          endchar
        </CharString>
        <CharString name="eightsuperior">
          -165 394 66 130 56 102 64 hstemhm
          34 -58 callgsubr
          hintmask 1111000010000000
          377 518 -31 callsubr
          -56 97 93 79 51 -27 callsubr
          -18 -41 -42 -47 18 33 vhcurveto
          endchar
        </CharString>
        <CharString name="einvertedbreve">
          -74 callgsubr
          76 -4 callgsubr
          32 117 37 238 hintmask 11101110
          305 679 rmoveto
          hintmask 11110110
          -92 callsubr
          hintmask 11101110
          -23 callsubr
          -2 -689 -107 callgsubr
          endchar
        </CharString>
        <CharString name="ellipsis">
          -27 0 128 hstem
          61 91 78 90 78 91 cntrmask 01110000
          152 hmoveto
          128 -91 -128 vlineto
          259 hmoveto
          128 -90 -128 vlineto
          259 hmoveto
          62 callgsubr
        </CharString>
        <CharString name="emacron">
          -74 callgsubr
          112 70 -89 callgsubr
          -13 343 -42 callgsubr
        </CharString>
        <CharString name="emdash">
          342 224 99 hstem
          858 224 rmoveto
          99 -797 -99 vlineto
          endchar
        </CharString>
        <CharString name="emspace">
          347 endchar
        </CharString>
        <CharString name="endash">
          25 callsubr
        </CharString>
        <CharString name="eng">
          19 38 callsubr
          434 98 -9 15 callsubr
          hintmask 11101100
          364 -191 rmoveto
          92 79 74 106 hvcurveto
          330 vlineto
          115 -30 98 -126 -92 -81 -44 -70 -40 vhcurveto
          hintmask 11011100
          -60 callgsubr
          hintmask 11101100
          71 23 70 52 63 hhcurveto
          61 32 -43 -98 hvcurveto
          -312 vlineto
          -44 -35 -39 callsubr
          -18 -38 callgsubr
          45 -14 48 hhcurveto
          endchar
        </CharString>
        <CharString name="enspace">
          17 endchar
        </CharString>
        <CharString name="eogonek">
          18 -171 -21 183 80 154 76 150 81 84 callsubr
          68 66 vstem
          316 -192 rmoveto
          -51 callsubr
          81 16 65 49 29 63 -94 27 rcurveline
          -48 -20 -58 -32 -59 hhcurveto
          -81 -70 62 92 -7 hvcurveto
          419 hlineto
          1 9 2 15 16 vvcurveto
          141 -103 126 -164 -164 -108 -124 -148 -142 101 -120 154 -7 vhcurveto
          -48 -34 -22 -33 -34 -47 callgsubr
          -170 493 rmoveto
          -90 callgsubr
          endchar
        </CharString>
        <CharString name="equal">
          -139 162 73 82 73 hstem
          373 162 rmoveto
          73 -309 -73 vlineto
          309 155 rmoveto
          73 -309 -73 vlineto
          endchar
        </CharString>
        <CharString name="estimated">
          26 -10 41 220 44 196 41 hstem
          39 115 308 115 vstem
          307 31 rmoveto
          -60 -55 29 45 -38 hvcurveto
          146 423 vlineto
          155 -110 126 -160 -159 -109 -125 -147 -145 107 -125 161 102 71 36 47 48 vhcurveto
          -29 31 rlineto
          -39 -38 -61 -34 -93 hhcurveto
          460 vmoveto
          61 56 -30 -49 38 hvcurveto
          -117 -308 118 vlineto
          48 38 55 30 60 hhcurveto
          endchar
        </CharString>
        <CharString name="eth">
          32 -10 94 300 89 257 -20 hstem
          35 113 312 -44 callsubr
          483 713 rmoveto
          -82 -48 -27 24 -31 22 -34 19 rlinecurve
          -147 hlineto
          63 -35 50 -34 41 -36 -92 -53 rcurveline
          32 -45 101 58 60 -65 29 -68 14 -72 rlinecurve
          56 -36 -69 37 -77 hhcurveto
          -135 -108 -108 -132 -137 118 -106 147 152 121 114 186 105 -39 128 -93 103 hvcurveto
          74 42 rlineto
          -367 -435 rmoveto
          84 68 67 89 87 68 -63 -83 -84 -68 -70 -90 -86 -68 65 84 vhcurveto
          endchar
        </CharString>
        <CharString name="etilde">
          -74 callgsubr
          83 -32 callgsubr
          32 117 hintmask 11110110
          -104 callgsubr
          -99 314 -87 callgsubr
          hintmask 11101010
          -94 callsubr
          hintmask 11110110
          -56 callsubr
        </CharString>
        <CharString name="exclam">
          -293 0 137 580 -20 hstem
          87 -3 callgsubr
          197 253 rmoveto
          464 -110 -464 vlineto
          110 -253 rmoveto
          137 -110 -137 vlineto
          endchar
        </CharString>
        <CharString name="exclamdown">
          -295 17 -21 580 137 hstem
          86 -3 callgsubr
          86 460 rmoveto
          -464 110 464 vlineto
          -110 253 rmoveto
          -137 110 137 vlineto
          endchar
        </CharString>
        <CharString name="f">
          -221 21 -21 425 85 137 93 hstem
          96 -3 callgsubr
          206 hmoveto
          425 134 85 -134 24 vlineto
          73 28 40 52 25 30 -9 -12 20 vhcurveto
          24 82 rlineto
          20 -37 -43 12 -42 hhcurveto
          -102 -65 -81 -128 hvcurveto
          -21 -70 -85 70 -425 vlineto
          endchar
        </CharString>
        <CharString name="f_f">
          43 24 callsubr
          hintmask 11011100
          548 646 rmoveto
          34 21 -10 -10 18 hvcurveto
          24 82 rlineto
          12 -28 -35 20 -55 hhcurveto
          -63 -44 -26 -39 -30 hvcurveto
          hintmask 11101100
          16 -35 -42 12 -46 hhcurveto
          -110 -59 -85 -100 -2 hvcurveto
          -8 -70 -85 70 37 callgsubr
          141 37 callgsubr
          147 85 -147 24 vlineto
          hintmask 11011100
          56 26 56 65 vhcurveto
          -201 -136 rmoveto
          -141 10 hlineto
          hintmask 11101100
          49 1 22 40 59 hhcurveto
          21 30 -4 -12 20 hvcurveto
          -9 -17 -3 -47 -19 vvcurveto
          endchar
        </CharString>
        <CharString name="f_f_i">
          219 24 callsubr
          163 111 hintmask 11011110
          96 hmoveto
          110 425 141 37 callgsubr
          163 -425 111 510 -274 24 hlineto
          56 29 56 73 45 49 -21 -25 29 vhcurveto
          46 82 rlineto
          30 -48 -62 28 -70 hhcurveto
          -71 -53 -26 -39 -34 hvcurveto
          hintmask 11101110
          16 -35 -42 12 -46 hhcurveto
          -110 -61 -90 -95 hvcurveto
          -8 -70 -85 70 vlineto
          110 85 rmoveto
          10 vlineto
          46 23 43 59 21 30 -4 -12 20 vhcurveto
          -9 -17 -3 -47 -19 vvcurveto
          endchar
        </CharString>
        <CharString name="f_f_l">
          306 0 91 -77 -21 432 85 99 94 -57 94 hstemhm
          96 110 143 110 190 110 hintmask 01110111
          771 -7 rmoveto
          54 58 19 3 2 hvcurveto
          -16 89 rlineto
          hintmask 10101111
          -2 -33 -13 -24 hhcurveto
          -36 -15 34 26 hvcurveto
          408 vlineto
          107 -67 74 -138 -73 -56 -22 -43 -35 vhcurveto
          hintmask 10110111
          16 -35 -37 12 -48 hhcurveto
          -107 -67 -85 -100 hvcurveto
          -8 -70 -85 70 37 callgsubr
          143 37 callgsubr
          95 85 -95 9 vlineto
          hintmask 01101111
          69 26 58 70 74 20 -56 -52 vhcurveto
          -440 vlineto
          -57 46 -48 76 vhcurveto
          -565 517 rmoveto
          12 vlineto
          hintmask 10110111
          43 29 44 58 20 25 -3 -12 20 vhcurveto
          -7 -15 -2 -47 -22 vvcurveto
          endchar
        </CharString>
        <CharString name="f_i">
          -31 21 -21 425 85 136 94 hstem
          96 110 164 -3 callgsubr
          96 hmoveto
          110 425 164 -425 110 510 -274 24 hlineto
          56 31 56 69 48 47 -19 -27 31 vhcurveto
          45 82 rlineto
          30 -44 -59 28 -75 hhcurveto
          -132 -71 -100 -109 hvcurveto
          -21 -70 -85 70 vlineto
          endchar
        </CharString>
        <CharString name="f_l">
          53 -7 98 -70 -21 425 85 136 94 hstemhm
          96 110 191 110 hintmask 10111100
          616 104 rmoveto
          -1 -33 -13 -24 hhcurveto
          -35 -16 34 26 hvcurveto
          408 vlineto
          107 -67 74 -139 -131 -74 -75 -125 vhcurveto
          -30 -70 -85 70 vlineto
          hintmask 01111100
          37 callgsubr
          96 85 -96 13 vlineto
          72 2 27 51 68 hhcurveto
          74 20 -55 -55 hvcurveto
          -438 vlineto
          hintmask 10111100
          -57 45 -48 76 55 58 19 3 2 vhcurveto
          endchar
        </CharString>
        <CharString name="five">
          -26 -149 97 273 96 153 101 hstem
          405 -44 callsubr
          285 317 rmoveto
          -50 -39 -16 -25 -23 hvcurveto
          36 194 rlineto
          267 101 -347 hlineto
          0 -76 -392 -5 -23 vhcurveto
          97 hlineto
          42 28 47 23 50 hhcurveto
          77 58 -55 -79 -83 -60 -56 -82 -66 -63 38 56 -37 hvcurveto
          -66 -63 rlineto
          -78 42 87 -50 102 hhcurveto
          145 111 96 142 134 -100 94 -133 hvcurveto
          endchar
        </CharString>
        <CharString name="five.denominator">
          -190 -5 63 157 51 81 67 hstem
          289 69 vstem
          198 266 56 callsubr
          67 -236 hlineto
          -9 -53 -34 -128 -12 -64 rrcurveto
          59 hlineto
          27 19 39 19 38 hhcurveto
          45 51 -26 -53 -49 -45 -29 -57 -51 -42 21 31 -26 35 callgsubr
          -28 68 hhcurveto
          99 76 57 81 79 -70 54 -90 hvcurveto
          endchar
        </CharString>
        <CharString name="five.lnum">
          -14 -10 98 273 95 153 101 hstem
          411 -44 callsubr
          291 456 rmoveto
          -50 -39 -15 -25 -23 hvcurveto
          36 193 rlineto
          267 101 -347 hlineto
          0 -76 -391 -5 -23 vhcurveto
          98 hlineto
          41 27 48 24 50 hhcurveto
          76 58 -55 -80 -82 -60 -56 -82 -66 -63 37 57 -37 hvcurveto
          -66 -63 rlineto
          -79 43 86 -50 102 hhcurveto
          146 110 97 142 133 -100 94 -133 hvcurveto
          endchar
        </CharString>
        <CharString name="five.numerator">
          -190 311 65 156 51 81 66 hstem
          289 68 vstem
          198 583 -68 callgsubr
          -28 -57 -51 -43 19 32 -25 35 callgsubr
          -29 68 hhcurveto
          99 75 57 83 78 -69 54 -90 hvcurveto
          endchar
        </CharString>
        <CharString name="fiveeighths">
          359 34 callgsubr
          65 65 -27 64 119 51 81 66 hstemhm
          297 68 193 -58 callgsubr
          hintmask 0111011110000100
          206 583 -68 callgsubr
          -28 -57 -51 -43 19 32 -25 35 callgsubr
          -29 68 hhcurveto
          99 75 57 83 78 -69 54 -90 hvcurveto
          8 -589 -93 callsubr
          738 79 1 callgsubr
          hintmask 1010111101001000
          -73 callgsubr
          hintmask 1011011110000100
          -46 -18 -42 -31 -82 callsubr
          hintmask 1010111100110000
          -71 callgsubr
          endchar
        </CharString>
        <CharString name="fiveinferior">
          -190 -87 63 157 51 81 66 hstem
          289 68 vstem
          198 184 -68 callgsubr
          -29 -57 -51 -43 21 31 -25 35 callgsubr
          -28 68 hhcurveto
          99 75 56 82 79 -69 54 -90 hvcurveto
          endchar
        </CharString>
        <CharString name="fivesuperior">
          -190 394 64 156 51 81 66 hstem
          289 69 vstem
          198 665 56 callsubr
          66 -236 hlineto
          -9 -53 -34 -127 -12 -64 rrcurveto
          59 hlineto
          27 19 39 19 38 hhcurveto
          45 51 -26 -53 -49 -45 -28 -57 -51 -42 20 32 -26 hvcurveto
          -41 -43 rlineto
          -45 28 60 -28 68 hhcurveto
          99 76 56 83 78 -70 54 -90 hvcurveto
          endchar
        </CharString>
        <CharString name="florin">
          -36 -191 96 472 85 185 93 hstem
          217 -3 callgsubr
          156 -191 rmoveto
          91 80 72 103 hvcurveto
          393 134 85 -134 72 vlineto
          73 28 40 52 26 29 -9 -12 20 vhcurveto
          24 82 rlineto
          20 -36 -44 12 -42 hhcurveto
          -101 -66 -81 -128 hvcurveto
          -69 -69 -85 69 -396 vlineto
          -44 -35 -39 callsubr
          -17 -38 callgsubr
          45 -14 47 hhcurveto
          endchar
        </CharString>
        <CharString name="four">
          -13 -106 -21 159 100 439 -20 hstemhm
          329 110 -98 98 hintmask 11110000
          439 -127 rmoveto
          159 88 100 -88 439 -75 vlineto
          -342 -441 rlineto
          -98 307 -159 vlineto
          hintmask 11101000
          12 530 rmoveto
          -271 -207 vlineto
          endchar
        </CharString>
        <CharString name="four.denominator">
          -177 21 -21 97 65 252 -20 hstem
          248 64 vstem
          312 hmoveto
          -49 callsubr
          endchar
        </CharString>
        <CharString name="four.lnum">
          4 21 -21 172 99 439 -20 hstemhm
          344 110 -98 98 hintmask 11110000
          454 hmoveto
          172 88 99 -88 439 -76 vlineto
          -351 -440 rlineto
          -98 317 -172 vlineto
          hintmask 11101000
          12 543 rmoveto
          -272 -217 vlineto
          endchar
        </CharString>
        <CharString name="four.numerator">
          -177 339 -21 95 20 callgsubr
          318 -9 callsubr
        </CharString>
        <CharString name="fourinferior">
          -177 -61 -21 96 20 callgsubr
          -82 rmoveto
          96 60 66 -60 251 -46 vlineto
          -244 -252 rlineto
          -65 224 -96 vlineto
          2 329 rmoveto
          -167 -159 vlineto
          endchar
        </CharString>
        <CharString name="foursuperior">
          -177 421 -21 95 20 callgsubr
          400 -9 callsubr
        </CharString>
        <CharString name="fraction">
          -393 15 -21 722 -20 hstem
          -156 -6 -29 callsubr
        </CharString>
        <CharString name="franc">
          34 21 -21 116 79 111 93 212 99 hstem
          116 -44 callsubr
          229 hmoveto
          116 115 79 -115 111 301 93 -301 212 360 99 -473 -515 -86 -79 86 -116 vlineto
          endchar
        </CharString>
        <CharString name="g">
          52 -25 callsubr
          hstemhm
          34 112 307 110 -97 97 hintmask 11011100
          273 -5 -87 callsubr
          hintmask 11011010
          -97 -99 hlineto
          hintmask 11101100
          -91 callsubr
          endchar
        </CharString>
        <CharString name="gacute">
          -2 callsubr
          426 730 -100 callsubr
          -64 -603 -87 callsubr
          hintmask 11011101
          -97 -99 hlineto
          hintmask 11101110
          -91 callsubr
          endchar
        </CharString>
        <CharString name="gbreve">
          51 -25 callsubr
          105 51 -51 122 hstemhm
          33 112 71 238 -2 110 -97 97 hintmask 1101101010000000
          272 -5 -87 callsubr
          hintmask 1101101101000000
          -97 -99 hlineto
          hintmask 1110101010000000
          -91 callsubr
          27 575 rmoveto
          hintmask 1110011101000000
          -92 callgsubr
          hintmask 1110101101000000
          -60 callsubr
        </CharString>
        <CharString name="gcircumflex">
          -2 callsubr
          249 607 -101 callsubr
          81 -640 -87 callsubr
          hintmask 11011101
          -97 -99 hlineto
          hintmask 11101110
          -91 callsubr
          endchar
        </CharString>
        <CharString name="gcommaaccent">
          51 -223 84 0 134 0 89 53 callgsubr
          29 49 165 -20 hstemhm
          33 112 126 95 86 110 -97 97 hintmask 0100111111000000
          306 746 rmoveto
          -35 -77 rlineto
          -88 95 88 -32 vlineto
          23 77 rlineto
          -85 -751 rmoveto
          72 71 37 63 37 hvcurveto
          -80 vlineto
          -106 -78 -48 -90 -72 -67 30 56 -40 vhcurveto
          -62 -58 rlineto
          hintmask 1010111111000000
          -70 52 73 -42 116 hhcurveto
          158 120 87 151 hvcurveto
          508 vlineto
          hintmask 1010111110100000
          -97 -99 hlineto
          hintmask 0101001111000000
          64 -41 -64 44 -84 hhcurveto
          -143 -100 -122 -149 -141 98 -125 141 hvcurveto
          hintmask 1011001111000000
          36 89 rmoveto
          -92 -71 79 95 90 60 90 95 62 64 -47 -66 26 hvcurveto
          -137 vlineto
          -55 -16 -62 -49 -66 hhcurveto
          endchar
        </CharString>
        <CharString name="gdotaccent">
          51 -25 callsubr
          112 115 hstemhm
          33 112 140 99 68 110 -97 97 hintmask 1101111100000000
          272 -5 -87 callsubr
          hintmask 1101111010000000
          -97 -99 hlineto
          hintmask 1110111100000000
          -91 callsubr
          76 531 -54 callsubr
          endchar
        </CharString>
        <CharString name="germandbls">
          -22 -6 101 -74 -21 345 100 175 94 hstemhm
          66 105 85 216 -104 104 -63 63 -63 115 hintmask 1011100010000000
          244 -6 rmoveto
          155 4 125 66 145 vvcurveto
          95 -55 76 -90 22 vhcurveto
          hintmask 0111101000000000
          51 16 42 63 70 vvcurveto
          99 -82 64 -110 -123 -91 -81 -113 vhcurveto
          -520 105 501 vlineto
          59 29 60 74 45 49 -24 -62 -53 -37 -36 -56 vhcurveto
          hintmask 1011110000000000
          -19 -100 20 hlineto
          hintmask 1011100100000000
          75 58 -47 -78 -86 -69 -37 -96 -2 hvcurveto
          endchar
        </CharString>
        <CharString name="grave">
          -334 0 callgsubr
          139 598 -84 callsubr
        </CharString>
        <CharString name="greater">
          -65 0 -21 559 -20 hstem
          480 284 rmoveto
          -421 254 rlineto
          -117 vlineto
          261 -162 -261 -158 rlineto
          -122 vlineto
          421 250 rlineto
          endchar
        </CharString>
        <CharString name="greaterequal">
          -117 40 89 447 -20 hstem
          407 73 callgsubr
          342 372 rmoveto
          -340 164 rlineto
          -105 vlineto
          201 -90 -201 -87 rlineto
          -108 vlineto
          340 158 rlineto
          endchar
        </CharString>
        <CharString name="guillemotleft">
          44 -14 callgsubr
          265 -55 rmoveto
          259 -175 rlineto
          90 vlineto
          -171 115 171 119 rlineto
          91 vlineto
          -259 -185 rlineto
          endchar
        </CharString>
        <CharString name="guillemotright">
          44 75 -21 415 -20 hstem
          583 284 rmoveto
          -258 185 rlineto
          -91 vlineto
          171 -119 -171 -115 rlineto
          -90 vlineto
          258 175 rlineto
          -265 55 2 callgsubr
        </CharString>
        <CharString name="guilsinglleft">
          -221 -14 callgsubr
          endchar
        </CharString>
        <CharString name="guilsinglright">
          -221 75 -21 415 -20 hstem
          318 284 2 callgsubr
        </CharString>
        <CharString name="h">
          -15 callgsubr
          9 callsubr
          66 110 249 -3 callgsubr
          535 319 -17 callgsubr
          312 -110 -730 -57 callsubr
          endchar
        </CharString>
        <CharString name="hbar">
          -15 callgsubr
          72 68 58 -20 hstem
          66 110 249 -3 callgsubr
          535 319 -17 callgsubr
          186 121 68 -121 58 -110 -58 -50 -68 50 -604 -57 callsubr
          endchar
        </CharString>
        <CharString name="hcircumflex">
          -15 callgsubr
          197 -20 21 15 callsubr
          hintmask 11101100
          288 608 rmoveto
          77 62 77 -62 53 27 -94 94 rlineto
          -71 hlineto
          -94 -94 rlineto
          299 -316 -17 callgsubr
          hintmask 11011100
          312 -110 -730 -57 callsubr
          endchar
        </CharString>
        <CharString name="hdotbelow">
          20 23 callgsubr
          434 98 9 callsubr
          66 110 77 99 73 -3 callgsubr
          535 319 -17 callgsubr
          312 -110 -730 -57 callsubr
          -183 -20 callgsubr
          endchar
        </CharString>
        <CharString name="hungarumlaut">
          -226 0 callgsubr
          177 730 -71 callsubr
          endchar
        </CharString>
        <CharString name="hyphen">
          -156 224 99 hstem
          360 224 rmoveto
          99 -299 -99 vlineto
          endchar
        </CharString>
        <CharString name="i">
          76 callgsubr
          106 121 -28 callgsubr
          110 609 rmoveto
          121 -110 -121 vlineto
          endchar
        </CharString>
        <CharString name="iacute">
          -335 -46 callsubr
          66 -3 callgsubr
          236 730 -100 callsubr
          30 -598 rmoveto
          -65 callgsubr
          endchar
        </CharString>
        <CharString name="ibreve">
          -335 21 -21 523 74 callsubr
          2 238 -174 110 hintmask 11100100
          176 hmoveto
          -65 callgsubr
          55 659 rmoveto
          hintmask 11011000
          -92 callgsubr
          hintmask 11101000
          -60 callsubr
        </CharString>
        <CharString name="icircumflex">
          -335 -46 callsubr
          66 -3 callgsubr
          36 607 -101 callsubr
          198 -635 rmoveto
          -65 callgsubr
          endchar
        </CharString>
        <CharString name="idblgrave">
          -335 -46 callsubr
          66 -3 callgsubr
          193 598 -95 callgsubr
          216 -730 rmoveto
          -65 callgsubr
          endchar
        </CharString>
        <CharString name="idieresis">
          -335 83 callgsubr
          -13 92 -13 110 -12 92 hintmask 11110100
          79 615 -97 callgsubr
          hintmask 11101000
          12 -615 rmoveto
          -65 callgsubr
          endchar
        </CharString>
        <CharString name="idotbelow">
          -335 23 callgsubr
          523 -20 106 121 -28 callgsubr
          110 609 rmoveto
          121 -110 -121 vlineto
          103 -798 -78 callgsubr
          endchar
        </CharString>
        <CharString name="igrave">
          -335 21 -21 523 -20 227 -20 -28 callgsubr
          31 598 -84 callsubr
        </CharString>
        <CharString name="iinvertedbreve">
          76 callgsubr
          105 -4 callgsubr
          3 238 -175 110 hintmask 11011000
          122 679 rmoveto
          hintmask 11101000
          -92 callsubr
          hintmask 11010100
          -23 callsubr
          54 -679 rmoveto
          -65 callgsubr
          endchar
        </CharString>
        <CharString name="ij">
          -86 38 callsubr
          523 -20 106 121 hstem
          66 110 138 -39 callgsubr
          110 609 rmoveto
          121 -110 -121 vlineto
          187 -800 -98 callgsubr
          endchar
        </CharString>
        <CharString name="imacron">
          76 callgsubr
          141 70 -28 callgsubr
          204 644 -42 callgsubr
        </CharString>
        <CharString name="infinity">
          123 177 85 178 86 hstem
          41 86 446 85 vstem
          206 526 rmoveto
          -94 -71 -78 -96 -96 82 -79 83 80 38 38 43 28 hvcurveto
          -43 29 38 -38 74 hhcurveto
          94 71 78 96 96 -64 79 -100 -78 -36 -42 -48 -30 hvcurveto
          48 -30 -37 42 -77 hhcurveto
          4 -264 rmoveto
          -40 -43 27 63 62 43 26 40 55 26 -41 -49 25 hvcurveto
          -48 -25 -27 -40 -54 hhcurveto
          280 hmoveto
          -53 -27 38 46 -23 hvcurveto
          51 22 25 43 56 hhcurveto
          40 43 -26 -62 -63 -43 -27 -40 hvcurveto
          endchar
        </CharString>
        <CharString name="integral">
          -241 -167 89 809 89 hstem
          136 -16 rmoveto
          -38 2 -23 -24 -33 hhcurveto
          -15 -20 5 8 -17 hvcurveto
          -22 -78 rlineto
          -14 34 48 -10 35 hhcurveto
          76 42 44 75 -4 hvcurveto
          -39 717 rlineto
          39 -2 22 23 34 hhcurveto
          14 21 -5 -8 17 hvcurveto
          22 78 rlineto
          14 -33 -49 10 -35 hhcurveto
          -76 -43 -49 -70 4 hvcurveto
          endchar
        </CharString>
        <CharString name="iogonek">
          -335 -167 -21 209 -10 callsubr
          86 0 121 hstemhm
          30 66 -30 110 hintmask 11101000
          129 57 callgsubr
          hintmask 11100100
          28 24 27 56 34 vhcurveto
          -10 callgsubr
          -523 43 vlineto
          hintmask 11011000
          -54 -35 -25 -36 -35 -47 callgsubr
          hintmask 11010100
          47 797 rmoveto
          121 -110 -121 vlineto
          endchar
        </CharString>
        <CharString name="itilde">
          76 callgsubr
          112 -32 callgsubr
          66 110 hintmask 11101100
          176 hmoveto
          -65 callgsubr
          118 32 callgsubr
          hintmask 11010100
          -94 callsubr
          hintmask 11101100
          -56 callsubr
        </CharString>
        <CharString name="j">
          -329 80 callgsubr
          72 -3 callgsubr
          11 -191 -98 callgsubr
          endchar
        </CharString>
        <CharString name="j.alt">
          -335 -192 -21 822 115 hstem
          66 -3 callgsubr
          66 -213 rmoveto
          110 730 -110 hlineto
          92 vmoveto
          110 115 -110 hlineto
          endchar
        </CharString>
        <CharString name="jcircumflex">
          -335 -191 96 618 -20 227 -30 callsubr
          31 798 -56 callgsubr
        </CharString>
        <CharString name="k">
          -29 21 -21 730 -20 hstem
          66 -3 callgsubr
          547 hmoveto
          -21 callgsubr
        </CharString>
        <CharString name="kcommaaccent">
          -29 -192 -21 234 -21 730 -20 hstem
          66 110 57 95 vstem
          293 -89 callsubr
          305 213 rmoveto
          -21 callgsubr
        </CharString>
        <CharString name="kgreenlandic">
          -29 21 -21 522 -20 21 40 callsubr
          hintmask 11010000
          547 hmoveto
          -214 303 203 219 rlineto
          -120 hlineto
          -240 -255 rlineto
          hintmask 10110000
          256 -110 -523 110 159 vlineto
          87 82 167 -241 rlineto
          endchar
        </CharString>
        <CharString name="l">
          75 callgsubr
          hstem
          67 -3 callgsubr
          67 111 rmoveto
          -75 45 -44 75 35 49 10 14 32 vhcurveto
          -16 86 rlineto
          -7 -17 -21 -6 -15 hhcurveto
          -36 -21 23 39 hvcurveto
          579 -37 callsubr
          endchar
        </CharString>
        <CharString name="l.alt">
          -327 21 -21 730 -20 hstem
          70 -3 callgsubr
          70 hmoveto
          110 730 -110 hlineto
          endchar
        </CharString>
        <CharString name="lacute">
          75 callgsubr
          190 -20 hstem
          67 -3 callgsubr
          232 900 -100 callsubr
          -75 -657 rmoveto
          -75 45 -44 75 35 49 10 14 32 vhcurveto
          -16 86 rlineto
          -7 -17 -21 -6 -15 hhcurveto
          -36 -21 23 39 hvcurveto
          579 -37 callsubr
          endchar
        </CharString>
        <CharString name="lcaron">
          75 callgsubr
          hstem
          67 -3 callgsubr
          380 730 -100 callsubr
          -223 -487 rmoveto
          -75 45 -44 75 35 49 10 14 32 vhcurveto
          -16 86 rlineto
          -7 -17 -21 -6 -15 hhcurveto
          -36 -21 23 39 hvcurveto
          579 -37 callsubr
          endchar
        </CharString>
        <CharString name="lcommaaccent">
          -276 5 callsubr
          40 0 97 641 -20 hstemhm
          67 110 -44 95 hintmask 11010100
          193 -89 callsubr
          hintmask 10111000
          -75 324 rmoveto
          -75 45 -44 75 35 49 10 14 32 vhcurveto
          -16 86 rlineto
          -7 -17 -21 -6 -15 hhcurveto
          -36 -21 23 39 hvcurveto
          579 -37 callsubr
          endchar
        </CharString>
        <CharString name="ldot">
          -210 -8 97 186 137 318 -20 hstem
          67 110 82 91 vstem
          67 111 rmoveto
          -75 45 -44 75 35 49 10 14 32 vhcurveto
          -16 86 rlineto
          -7 -17 -21 -6 -15 hhcurveto
          -36 -21 23 39 hvcurveto
          579 -37 callsubr
          283 -455 rmoveto
          137 -91 -137 vlineto
          endchar
        </CharString>
        <CharString name="less">
          -65 0 -21 559 -20 hstem
          33 229 rmoveto
          420 -250 rlineto
          122 vlineto
          -261 158 261 162 rlineto
          117 vlineto
          -420 -254 rlineto
          endchar
        </CharString>
        <CharString name="lessequal">
          -117 40 89 447 -20 hstem
          396 73 callgsubr
          304 vmoveto
          339 -158 rlineto
          108 vlineto
          -201 87 201 90 rlineto
          105 vlineto
          -339 -164 rlineto
          endchar
        </CharString>
        <CharString name="lira">
          -61 -15 94 -67 67 -67 85 133 67 53 67 208 90 hstemhm
          77 100 hintmask 01011110
          48 350 rmoveto
          100 hlineto
          7 -17 5 -18 3 -18 rrcurveto
          -115 -67 114 hlineto
          -10 -52 -35 -50 -64 -57 26 -79 rcurveline
          12 39 47 8 34 hhcurveto
          hintmask 10011110
          17 callsubr
          hintmask 00111110
          67 callgsubr
          52 55 26 43 10 46 rrcurveto
          146 67 -144 hlineto
          -2 19 -4 17 -6 17 rrcurveto
          156 67 -186 hlineto
          -21 39 -20 36 38 7 callgsubr
          -45 18 -39 21 -39 hvcurveto
          -68 hlineto
          endchar
        </CharString>
        <CharString name="logicalnot">
          24 134 -21 175 99 hstem
          439 94 vstem
          63 387 rmoveto
          -99 376 -175 94 274 vlineto
          endchar
        </CharString>
        <CharString name="lozenge">
          -35 21 -21 730 -20 hstem
          211 730 rmoveto
          -186 -364 186 -366 rlineto
          120 hlineto
          186 366 -186 364 rlineto
          -52 -652 rmoveto
          -148 297 139 274 148 -295 rlineto
          endchar
        </CharString>
        <CharString name="lslash">
          -252 -8 97 641 -20 hstem
          90 -3 callgsubr
          90 111 rmoveto
          -75 45 -44 75 35 49 10 14 32 vhcurveto
          -16 86 rlineto
          -7 -17 -21 -6 -15 hhcurveto
          -36 -21 23 39 hvcurveto
          234 vlineto
          117 78 -31 60 -86 -57 rlineto
          264 -110 -337 vlineto
          -86 -56 30 -61 56 37 rlineto
          endchar
        </CharString>
        <CharString name="m">
          350 28 callsubr
          -9 40 callsubr
          235 110 235 110 cntrmask 00011100
          hintmask 11011100
          866 319 rmoveto
          114 -33 99 -124 -85 -68 -42 -77 -44 vhcurveto
          68 -12 -51 51 -86 hhcurveto
          -86 -70 -41 -73 -41 hvcurveto
          hintmask 10111100
          -60 callgsubr
          hintmask 11011100
          73 22 58 50 62 hhcurveto
          60 33 -43 -98 hvcurveto
          -293 110 310 vlineto
          73 22 57 51 62 hhcurveto
          61 33 -44 -97 38 callgsubr
          endchar
        </CharString>
        <CharString name="macron">
          -166 644 70 hstem
          354 644 -42 callgsubr
        </CharString>
        <CharString name="minus">
          -45 271 89 hstem
          468 271 rmoveto
          89 -404 -89 vlineto
          endchar
        </CharString>
        <CharString name="mu">
          68 59 callgsubr
          77 79 callgsubr
          77 -212 rmoveto
          104 270 hlineto
          -33 12 33 -35 57 hhcurveto
          74 74 59 57 27 hvcurveto
          2 -48 rlineto
          hintmask 10111010
          -37 2 28 -26 43 hhcurveto
          13 -3 callsubr
          -68 -34 48 93 hvcurveto
          298 -37 callsubr
          endchar
        </CharString>
        <CharString name="multiply">
          -107 117 -21 354 -20 hstem
          304 274 rmoveto
          106 107 -68 69 -107 -107 -106 106 -69 -68 105 -107 -108 -109 68 -69 110 109 110 -109 69 68 rlineto
          endchar
        </CharString>
        <CharString name="n">
          20 21 -21 434 98 -9 15 callsubr
          hintmask 11011000
          535 319 rmoveto
          -67 callsubr
          hintmask 10111000
          -60 callgsubr
          hintmask 11011000
          -77 callgsubr
          endchar
        </CharString>
        <CharString name="nacute">
          4 callgsubr
          227 15 callsubr
          hintmask 11011100
          424 730 -100 callsubr
          201 -279 rmoveto
          -67 callsubr
          hintmask 10111100
          -60 callgsubr
          hintmask 11011100
          -77 callgsubr
          endchar
        </CharString>
        <CharString name="napostrophe">
          4 callgsubr
          227 15 callsubr
          hintmask 11011100
          145 46 callgsubr
          481 -279 rmoveto
          -67 callsubr
          hintmask 10111100
          -60 callgsubr
          hintmask 11011100
          -77 callgsubr
          endchar
        </CharString>
        <CharString name="ncaron">
          4 callgsubr
          29 75 123 15 callsubr
          hintmask 10111110
          166 702 -94 callgsubr
          311 -411 rmoveto
          -67 callsubr
          -60 callgsubr
          hintmask 11001110
          -77 callgsubr
          endchar
        </CharString>
        <CharString name="ncommaaccent">
          20 -192 -21 234 54 callgsubr
          -9 40 callsubr
          70 95 84 110 hintmask 11101110
          306 -89 callsubr
          280 532 rmoveto
          -67 callsubr
          hintmask 11011110
          -60 callgsubr
          hintmask 11101110
          -77 callgsubr
          endchar
        </CharString>
        <CharString name="ndotaccent">
          4 callgsubr
          112 115 54 callsubr
          84 99 66 110 hintmask 11011110
          359 615 -54 callsubr
          275 -296 rmoveto
          -67 callsubr
          hintmask 10111110
          -60 callgsubr
          hintmask 11011110
          -77 callgsubr
          endchar
        </CharString>
        <CharString name="nine">
          12 -154 96 145 88 302 94 hstem
          34 105 308 103 vstem
          34 325 rmoveto
          -134 108 -104 138 75 64 38 59 28 vhcurveto
          -153 -2 -65 -89 -99 hhcurveto
          -65 -58 35 56 -30 hvcurveto
          -65 -68 rlineto
          -75 47 79 -44 90 hhcurveto
          164 107 139 271 197 -103 118 -156 -145 -112 -109 -137 hvcurveto
          256 152 rmoveto
          82 69 -69 -83 -82 -68 -68 -83 -82 -69 68 82 83 69 69 82 hvcurveto
          endchar
        </CharString>
        <CharString name="nine.denominator">
          -160 -5 63 77 59 161 62 hstem
          30 64 224 63 vstem
          30 273 rmoveto
          -78 73 -60 97 48 50 19 30 callgsubr
          -45 rlineto
          -43 43 callsubr
          70 -105 -99 -76 -64 81 callsubr
          -43 -49 -36 -60 -60 -51 36 43 44 50 38 60 hvcurveto
          endchar
        </CharString>
        <CharString name="nine.lnum">
          29 -10 97 144 89 302 93 hstem
          42 106 307 103 vstem
          42 469 rmoveto
          -133 108 -105 138 76 63 38 59 28 vhcurveto
          -153 -1 -65 -88 -100 hhcurveto
          -64 -59 35 56 -30 hvcurveto
          -65 -68 rlineto
          -76 47 79 -44 91 hhcurveto
          164 106 140 271 197 -102 117 -157 -145 -112 -108 -138 hvcurveto
          256 153 rmoveto
          82 70 -70 -83 -81 -69 -68 -82 -82 -69 68 82 83 68 69 82 hvcurveto
          endchar
        </CharString>
        <CharString name="nine.numerator">
          -161 307 63 78 59 161 62 hstem
          30 64 223 63 vstem
          30 586 rmoveto
          -78 72 -60 98 47 50 19 31 20 vhcurveto
          -81 -1 -48 -47 -70 hhcurveto
          -46 -42 20 30 -20 hvcurveto
          -40 -45 rlineto
          -43 30 55 -25 61 hhcurveto
          112 72 82 153 118 83 callsubr
          82 rmoveto
          60 50 -37 71 callsubr
          37 60 hvcurveto
          endchar
        </CharString>
        <CharString name="nineinferior">
          -160 -87 63 76 59 162 61 hstem
          30 64 224 63 vstem
          30 191 rmoveto
          -78 73 -61 97 48 50 20 30 callgsubr
          -46 rlineto
          -42 43 callsubr
          69 -105 -99 -76 -63 81 callsubr
          -44 -49 -36 -60 -60 -51 36 44 44 50 38 60 hvcurveto
          endchar
        </CharString>
        <CharString name="ninesuperior">
          -161 390 63 77 59 162 61 hstem
          30 64 223 63 vstem
          30 668 rmoveto
          -77 72 -61 98 47 50 20 30 20 vhcurveto
          -80 -1 -48 -47 -70 hhcurveto
          -46 -42 19 30 -20 hvcurveto
          -40 -45 rlineto
          -43 30 55 -24 61 hhcurveto
          112 72 81 154 117 83 callsubr
          83 rmoveto
          60 50 -38 71 callsubr
          38 60 hvcurveto
          endchar
        </CharString>
        <CharString name="notequal">
          -104 63 -21 122 73 78 73 123 -20 hstem
          82 315 rmoveto
          146 hlineto
          -41 -78 rlineto
          -105 -73 66 hlineto
          -51 -98 44 -24 64 122 rlineto
          186 73 -148 hlineto
          41 78 rlineto
          107 73 -68 hlineto
          52 99 -44 24 -65 -123 rlineto
          -184 hlineto
          endchar
        </CharString>
        <CharString name="ntilde">
          4 callgsubr
          112 66 -23 67 5 15 callsubr
          hintmask 11010111
          535 319 rmoveto
          -67 callsubr
          hintmask 10110111
          -60 callgsubr
          hintmask 11010111
          -77 callgsubr
          -163 32 callgsubr
          hintmask 11001011
          -94 callsubr
          hintmask 11010111
          -56 callsubr
        </CharString>
        <CharString name="numbersign">
          129 21 -21 194 84 158 78 196 -20 hstem
          669 514 rmoveto
          -120 hlineto
          49 196 rlineto
          -90 hlineto
          -48 -196 rlineto
          -144 hlineto
          48 196 rlineto
          -90 hlineto
          -47 -196 rlineto
          -145 -78 125 hlineto
          -38 -158 rlineto
          -132 -84 113 hlineto
          -49 -194 rlineto
          90 hlineto
          47 194 rlineto
          145 hlineto
          -48 -194 rlineto
          90 hlineto
          47 194 rlineto
          152 84 -132 hlineto
          38 158 rlineto
          139 hlineto
          -411 -158 rmoveto
          38 158 rlineto
          145 hlineto
          -38 -158 rlineto
          endchar
        </CharString>
        <CharString name="o">
          4 callsubr
          33 callgsubr
          -81 callgsubr
          endchar
        </CharString>
        <CharString name="oacute">
          4 callsubr
          198 -20 33 callgsubr
          415 730 -100 callsubr
          -24 -608 rmoveto
          -106 callsubr
          endchar
        </CharString>
        <CharString name="obreve">
          4 callsubr
          76 51 -51 122 55 callgsubr
          hintmask 11101110
          -81 callgsubr
          156 399 rmoveto
          hintmask 11011110
          -92 callgsubr
          hintmask 11101110
          -60 callsubr
        </CharString>
        <CharString name="ocircumflex">
          4 callsubr
          198 -20 33 callgsubr
          215 607 -101 callsubr
          144 -645 rmoveto
          -106 callsubr
          endchar
        </CharString>
        <CharString name="odblgrave">
          4 callsubr
          198 -20 33 callgsubr
          361 598 -95 callgsubr
          173 -740 rmoveto
          -106 callsubr
          endchar
        </CharString>
        <CharString name="odieresis">
          4 callsubr
          83 110 hstem
          32 113 21 92 85 92 22 113 13 callsubr
          -42 -625 rmoveto
          -106 callsubr
          endchar
        </CharString>
        <CharString name="odotbelow">
          25 -31 callgsubr
          63 -35 callgsubr
          hstem
          32 113 107 99 106 -44 callsubr
          351 -20 callgsubr
          49 179 rmoveto
          -106 callsubr
          endchar
        </CharString>
        <CharString name="oe">
          443 -10 79 -79 94 141 70 143 94 -81 81 hstemhm
          41 callgsubr
          117 311 110 hintmask 10110111
          300 -10 rmoveto
          88 71 47 87 54 hvcurveto
          -84 55 76 -50 90 hhcurveto
          103 93 53 81 38 hvcurveto
          -91 27 rlineto
          -48 -19 -58 -34 -62 hhcurveto
          -87 -70 68 88 -7 hvcurveto
          419 hlineto
          2 9 0 17 10 vvcurveto
          162 -7 -107 109 -153 hhcurveto
          -96 -74 -48 -90 -45 hvcurveto
          87 -43 -76 51 -94 hhcurveto
          -153 -115 -117 -155 -154 114 -116 154 hvcurveto
          hintmask 01110111
          1 94 rmoveto
          -88 -68 75 100 101 68 78 89 88 67 -77 -100 -101 -67 -76 -89 hvcurveto
          270 211 rmoveto
          hintmask 10101111
          91 6 64 65 84 hhcurveto
          84 69 -64 -92 7 hvcurveto
          endchar
        </CharString>
        <CharString name="ogonek">
          -305 -167 -21 208 -20 hstem
          61 66 vstem
          160 -188 rmoveto
          -51 callsubr
          -33 20 rlineto
          -77 -42 -36 -42 -42 -47 callgsubr
          endchar
        </CharString>
        <CharString name="ograve">
          4 callsubr
          198 -20 33 callgsubr
          -81 callgsubr
          133 338 -84 callsubr
        </CharString>
        <CharString name="ohungarumlaut">
          4 callsubr
          198 -20 33 callgsubr
          322 730 -71 callsubr
          -84 -608 rmoveto
          -106 callsubr
          endchar
        </CharString>
        <CharString name="oinvertedbreve">
          4 callsubr
          76 122 -51 51 55 callgsubr
          hintmask 11011110
          301 679 rmoveto
          hintmask 11101110
          -92 callsubr
          hintmask 11011110
          -23 callsubr
          -689 vmoveto
          -106 callsubr
          endchar
        </CharString>
        <CharString name="omacron">
          4 callsubr
          112 70 33 callgsubr
          450 644 rmoveto
          70 -296 -70 vlineto
          147 -654 rmoveto
          -106 callsubr
          endchar
        </CharString>
        <CharString name="one">
          -106 0 99 274 103 95 -20 hstem
          207 -44 callsubr
          320 99 rmoveto
          472 -113 vlineto
          -19 -9 -99 -76 -54 hhcurveto
          -103 vlineto
          52 87 44 31 23 hvcurveto
          -349 -142 -99 382 99 vlineto
          endchar
        </CharString>
        <CharString name="one.denominator">
          -260 0 42 callgsubr
          65 45 callsubr
          -66 vlineto
          37 57 31 48 callsubr
        </CharString>
        <CharString name="one.lnum">
          -112 0 99 420 102 96 -20 hstem
          203 -44 callsubr
          316 99 rmoveto
          618 -113 vlineto
          -4 -2 -87 -92 -71 hhcurveto
          -102 vlineto
          54 84 55 31 22 hvcurveto
          -506 -137 -99 377 99 vlineto
          endchar
        </CharString>
        <CharString name="one.numerator">
          -288 313 41 callsubr
          379 rmoveto
          352 -67 vlineto
          hintmask 11100000
          -3 -1 -52 -54 -42 hhcurveto
          -66 vlineto
          -59 callsubr
          endchar
        </CharString>
        <CharString name="oneeighth">
          342 34 callgsubr
          67 66 -30 64 318 -20 hstemhm
          44 162 -67 67 335 -58 callgsubr
          hintmask 0111011010010000
          186 -6 -93 callsubr
          71 62 callsubr
          hintmask 1011010110010000
          -67 hlineto
          hintmask 1011011010010000
          -3 -1 -52 -54 -42 hhcurveto
          -66 vlineto
          hintmask 1011011010000100
          -59 callsubr
          605 -260 1 callgsubr
          hintmask 1010111001001000
          -73 callgsubr
          hintmask 1011011010000100
          -46 -18 -42 -31 -82 callsubr
          hintmask 1010111000110000
          -71 callgsubr
          endchar
        </CharString>
        <CharString name="onehalf">
          345 0 65 -50 -21 319 66 -26 65 313 -20 hstemhm
          42 162 -67 67 604 73 hintmask 10011101
          882 hmoveto
          65 -225 vlineto
          33 20 38 73 24 vhcurveto
          52 16 79 29 85 vvcurveto
          78 -53 50 -100 -96 -59 -46 -22 -17 vhcurveto
          42 -49 rlineto
          23 21 40 29 59 hhcurveto
          59 31 -24 -38 -56 -70 -18 -60 -24 hvcurveto
          -90 -37 -36 -49 -107 vvcurveto
          hintmask 01101101
          -378 -6 -93 callsubr
          81 62 callsubr
          hintmask 10101011
          -67 hlineto
          hintmask 10101101
          -3 -1 -52 -54 -42 hhcurveto
          -66 vlineto
          -59 callsubr
          endchar
        </CharString>
        <CharString name="oneinferior">
          -261 -82 42 callgsubr
          -17 45 callsubr
          -67 vlineto
          37 57 32 48 callsubr
        </CharString>
        <CharString name="onequarter">
          316 15 -21 27 -21 97 65 151 66 352 -20 hstemhm
          43 162 -67 67 529 64 hintmask 01111101
          798 hmoveto
          -49 callsubr
          hintmask 10111101
          -363 -168 -93 callsubr
          44 62 callsubr
          hintmask 01111011
          -67 hlineto
          hintmask 01111101
          -3 -1 -52 -54 -42 hhcurveto
          -66 vlineto
          -59 callsubr
          endchar
        </CharString>
        <CharString name="onesuperior">
          -288 395 41 callsubr
          461 rmoveto
          352 -67 vlineto
          hintmask 11100000
          -3 -1 -52 -53 -42 hhcurveto
          -67 vlineto
          -59 callsubr
          endchar
        </CharString>
        <CharString name="onethird">
          345 -5 67 -47 -21 189 61 69 66 -22 62 312 -20 hstemhm
          45 162 -67 67 440 -7 callsubr
          hintmask 0111011010000000
          174 -6 -93 callsubr
          84 62 callsubr
          hintmask 1011010110000000
          -67 hlineto
          hintmask 1011011010000000
          -3 -1 -52 -54 -42 hhcurveto
          -66 vlineto
          hintmask 1011011001000000
          -59 callsubr
          433 -384 -28 callsubr
          48 vvcurveto
          hintmask 1010111001000000
          -51 callgsubr
          hintmask 1011011010000000
          86 callgsubr
          hintmask 1011011000100000
          -41 callgsubr
        </CharString>
        <CharString name="oogonek">
          25 -171 -21 183 93 354 94 hstem
          32 113 67 66 179 -44 callsubr
          311 -192 58 callsubr
          27 55 33 vhcurveto
          131 25 83 113 128 vvcurveto
          145 -106 126 -163 -162 -107 -126 -145 -140 97 -121 154 -9 vhcurveto
          -48 -34 -23 -33 -34 -47 callgsubr
          -166 452 rmoveto
          100 70 78 86 87 69 -77 -100 -100 -69 -77 -87 -87 -69 75 101 vhcurveto
          endchar
        </CharString>
        <CharString name="ordfeminine">
          -136 344 60 -41 -21 178 49 84 59 hstemhm
          43 79 160 84 hintmask 01111100
          163 342 rmoveto
          52 48 22 43 33 hvcurveto
          1 -21 rlineto
          hintmask 10111100
          -26 4 18 -16 33 hhcurveto
          11 11 1 3 15 hvcurveto
          73 vlineto
          -16 1 -7 7 18 vvcurveto
          118 vlineto
          95 -59 52 -99 -52 -47 -15 -31 -47 vhcurveto
          26 -53 rlineto
          26 40 35 14 37 hhcurveto
          54 28 -29 -49 hvcurveto
          -22 vlineto
          10 -24 -32 6 -34 hhcurveto
          -87 -62 -47 -68 hvcurveto
          hintmask 01111100
          -64 52 -48 68 vhcurveto
          hintmask 10111100
          24 62 rmoveto
          -37 -28 25 32 35 35 24 50 25 28 -4 -10 22 hvcurveto
          -43 vlineto
          -9 -4 -10 -9 -7 vhcurveto
          -20 -17 -32 -13 -33 hhcurveto
          endchar
        </CharString>
        <CharString name="ordmasculine">
          -131 342 72 225 73 hstem
          39 85 198 85 vstem
          223 342 rmoveto
          113 71 86 98 31 callsubr
          hvcurveto
          11 callgsubr
        </CharString>
        <CharString name="oslash">
          25 -10 94 -66 -21 441 94 -6 -20 hstemhm
          0 callsubr
          hintmask 01101100
          130 -3 rmoveto
          26 32 rlineto
          hintmask 10011100
          -1 callgsubr
          hintmask 01101100
          12 callsubr
          hintmask 10101100
          -49 callgsubr
          endchar
        </CharString>
        <CharString name="oslashacute">
          25 -10 94 -66 -21 441 94 -6 -20 224 -20 hstemhm
          0 callsubr
          hintmask 01101110
          130 -3 rmoveto
          26 32 rlineto
          hintmask 10011110
          -1 callgsubr
          hintmask 01101110
          12 callsubr
          hintmask 10101110
          -49 callgsubr
          270 470 -17 callsubr
        </CharString>
        <CharString name="otilde">
          4 callsubr
          83 -32 callgsubr
          0 callsubr
          hintmask 11101110
          -81 callgsubr
          219 355 -87 callgsubr
          hintmask 11010110
          -94 callsubr
          hintmask 11101110
          -56 callsubr
        </CharString>
        <CharString name="p">
          51 60 callgsubr
          66 51 callgsubr
          hintmask 11101010
          363 -65 callsubr
        </CharString>
        <CharString name="paragraph">
          60 -59 -21 296 84 326 84 hstem
          35 92 147 95 59 94 vstem
          35 461 rmoveto
          -148 94 -95 145 -2 vhcurveto
          -296 95 296 59 -296 94 706 70 84 -275 vlineto
          -178 -104 -92 -157 hvcurveto
          92 2 rmoveto
          97 53 64 94 2 vhcurveto
          -326 vlineto
          -80 6 -67 54 103 vvcurveto
          301 -163 rmoveto
          -59 326 59 hlineto
          endchar
        </CharString>
        <CharString name="parenleft">
          -281 -26 -21 797 -20 hstem
          38 103 vstem
          38 346 rmoveto
          -132 63 -137 84 -124 vhcurveto
          80 41 rlineto
          -75 122 -49 122 105 vvcurveto
          134 80 167 47 70 vhcurveto
          -85 36 rlineto
          -81 -137 -64 -131 -136 vvcurveto
          endchar
        </CharString>
        <CharString name="parenright">
          -281 -26 -21 797 -20 hstem
          155 102 vstem
          257 346 rmoveto
          136 -64 131 -81 137 vhcurveto
          -84 -36 rlineto
          46 -70 81 -167 -134 vvcurveto
          -105 -50 -122 -75 -122 vhcurveto
          81 -41 rlineto
          84 124 62 137 132 vvcurveto
          endchar
        </CharString>
        <CharString name="partialdiff">
          -10 -10 90 270 86 186 93 hstemhm
          23 105 272 122 -103 103 hintmask 11110100
          248 -10 rmoveto
          164 110 143 261 223 -80 98 -148 -78 -74 -27 -48 -47 hvcurveto
          61 -65 rlineto
          28 25 52 19 49 hhcurveto
          81 53 -51 -143 3 hvcurveto
          -21 0 -25 -2 -27 vhcurveto
          50 -21 -55 31 -68 hhcurveto
          -133 -117 -110 -129 -116 94 -91 131 hvcurveto
          4 90 rmoveto
          -70 -54 55 69 80 69 66 78 hvcurveto
          hintmask 11111000
          70 55 -53 -70 -78 -70 -69 -78 hvcurveto
          endchar
        </CharString>
        <CharString name="percent">
          181 56 callgsubr
          36 78 162 78 50 78 162 78 vstem
          195 70 callsubr
          -88 -71 -66 -83 -82 71 -66 88 68 callgsubr
          44 37 -41 -51 -48 -36 -43 -45 hvcurveto
          368 -490 -22 callsubr
          -431 -53 -29 callsubr
        </CharString>
        <CharString name="period">
          -364 0 128 hstem
          61 91 vstem
          152 hmoveto
          62 callgsubr
        </CharString>
        <CharString name="periodcentered">
          11 callsubr
        </CharString>
        <CharString name="perthousand">
          554 56 callgsubr
          41 79 162 78 49 79 161 79 52 78 162 78 vstem
          201 70 callsubr
          -89 -71 -66 -83 -82 71 -66 89 68 callgsubr
          43 38 -41 -51 -48 -37 -43 -44 hvcurveto
          367 -490 rmoveto
          90 70 66 83 82 -70 66 -90 -88 -71 -66 -82 -83 75 callsubr
          -36 41 51 48 36 43 44 44 37 -41 -50 -50 -36 -42 -45 hvcurveto
          371 -57 -22 callsubr
          -802 -53 -29 callsubr
        </CharString>
        <CharString name="pi">
          48 -8 97 -68 -21 425 97 hstemhm
          103 108 157 107 hintmask 10111000
          368 425 rmoveto
          -314 vlineto
          -75 45 -44 73 35 49 10 14 32 vhcurveto
          -16 86 rlineto
          -7 -17 -22 -6 -15 hhcurveto
          -36 -21 23 39 hvcurveto
          274 104 97 -554 -97 78 vlineto
          hintmask 01111000
          -425 108 425 vlineto
          endchar
        </CharString>
        <CharString name="plus">
          -158 211 -21 121 88 121 -20 hstem
          160 99 vstem
          259 399 rmoveto
          121 -99 -121 -111 -88 111 -121 99 121 111 88 vlineto
          endchar
        </CharString>
        <CharString name="plusminus">
          -108 40 89 199 89 131 -20 hstem
          185 99 vstem
          405 73 callgsubr
          221 377 rmoveto
          131 -99 -131 -122 -89 122 -132 99 132 122 89 vlineto
          endchar
        </CharString>
        <CharString name="product">
          148 -69 -21 703 97 hstem
          112 106 288 107 vstem
          506 -90 rmoveto
          107 703 80 97 -661 -97 80 -703 106 703 288 hlineto
          endchar
        </CharString>
        <CharString name="q">
          51 -191 -21 202 94 53 callgsubr
          hstemhm
          34 112 85 callgsubr
          -110 142 -129 97 hintmask 11101100
          82 callsubr
          -230 vlineto
          -45 38 -35 45 vhcurveto
          hintmask 11101010
          17 22 1 3 20 hvcurveto
          94 vlineto
          hintmask 11011100
          -23 2 -9 9 25 vvcurveto
          601 vlineto
          hintmask 11011001
          -52 callsubr
        </CharString>
        <CharString name="q.alt">
          51 60 callgsubr
          34 112 85 callgsubr
          -97 97 hintmask 11011100
          82 callsubr
          -311 110 736 vlineto
          hintmask 11011010
          -52 callsubr
        </CharString>
        <CharString name="question">
          -95 0 126 503 90 hstem
          133 92 125 96 vstem
          225 221 rmoveto
          75 51 27 54 30 vhcurveto
          65 36 51 43 92 vvcurveto
          136 -103 59 -100 -90 -83 -47 -82 -36 vhcurveto
          72 -49 rlineto
          44 25 46 44 63 hhcurveto
          56 54 -36 -65 -83 -89 -36 -45 -27 hvcurveto
          -63 -39 -20 -53 -69 vvcurveto
          92 -221 rmoveto
          126 -92 -126 vlineto
          endchar
        </CharString>
        <CharString name="questiondown">
          -101 -213 90 503 126 hstem
          32 96 125 92 vstem
          253 285 rmoveto
          -75 -51 -27 -54 -30 vhcurveto
          -65 -36 -51 -43 -92 vvcurveto
          -136 103 -59 100 90 83 47 82 36 vhcurveto
          -72 49 rlineto
          -44 -25 -46 -44 -63 hhcurveto
          -56 -54 36 65 83 89 36 45 27 hvcurveto
          63 39 20 53 69 vvcurveto
          -92 221 rmoveto
          -126 92 126 vlineto
          endchar
        </CharString>
        <CharString name="quotedbl">
          -220 501 220 hstem
          64 94 41 94 vstem
          158 501 rmoveto
          220 -94 -220 vlineto
          229 hmoveto
          220 -94 -220 vlineto
          endchar
        </CharString>
        <CharString name="quotedblbase">
          -188 -102 -21 123 129 hstem
          61 108 51 7 callsubr
          221 hmoveto
          33 122 rlineto
          130 -108 -129 35 vlineto
          -21 -123 rlineto
          endchar
        </CharString>
        <CharString name="quotedblleft">
          -190 488 124 -124 242 hstemhm
          59 108 54 108 hintmask 10110000
          29 callsubr
          hintmask 01110000
          21 118 rlineto
          101 hmoveto
          -33 -117 rlineto
          -125 108 vlineto
          hintmask 10110000
          124 -35 vlineto
          hintmask 01110000
          21 118 rlineto
          endchar
        </CharString>
        <CharString name="quotedblright">
          -197 491 242 -124 124 hstemhm
          57 108 54 108 hintmask 10110000
          132 491 rmoveto
          13 callgsubr
          223 hmoveto
          13 callgsubr
          endchar
        </CharString>
        <CharString name="quoteleft">
          -351 488 242 hstem
          59 108 vstem
          29 callsubr
          21 118 rlineto
          endchar
        </CharString>
        <CharString name="quoteright">
          -359 491 242 hstem
          57 108 vstem
          132 491 rmoveto
          33 117 rlineto
          125 -108 -124 35 vlineto
          -21 -118 rlineto
          endchar
        </CharString>
        <CharString name="quotesinglbase">
          -347 -102 -21 144 -21 129 -20 hstem
          61 7 callsubr
          endchar
        </CharString>
        <CharString name="quotesingle">
          -355 500 221 hstem
          64 94 vstem
          158 500 rmoveto
          221 -94 -221 vlineto
          endchar
        </CharString>
        <CharString name="r">
          -8 callsubr
          hstemhm
          66 110 hintmask 11010000
          360 527 -68 callsubr
          hintmask 10110000
          -45 callsubr
          hintmask 11010000
          -1 callsubr
        </CharString>
        <CharString name="racute">
          -8 callsubr
          227 40 callsubr
          hintmask 11011000
          336 730 -100 callsubr
          114 -71 -68 callsubr
          hintmask 10111000
          -45 callsubr
          hintmask 11011000
          -1 callsubr
        </CharString>
        <CharString name="radical">
          -78 21 -21 790 -20 hstem
          9 293 rmoveto
          92 hlineto
          85 -293 rlineto
          126 hlineto
          152 790 rlineto
          -101 hlineto
          -112 -702 -65 283 rlineto
          -177 hlineto
          endchar
        </CharString>
        <CharString name="rcaron">
          -8 callsubr
          25 79 123 40 callsubr
          hintmask 10111100
          78 702 -94 callgsubr
          224 -203 -68 callsubr
          -45 callsubr
          hintmask 11001100
          -1 callsubr
        </CharString>
        <CharString name="rcommaaccent">
          -203 5 callsubr
          48 65 callgsubr
          126 -89 callsubr
          285 740 -68 callsubr
          hintmask 11011000
          -45 callsubr
          hintmask 11101000
          -1 callsubr
        </CharString>
        <CharString name="rdblgrave">
          -8 callsubr
          227 40 callsubr
          hintmask 11011000
          281 598 -95 callgsubr
          312 -203 -68 callsubr
          hintmask 10111000
          -45 callsubr
          hintmask 11011000
          -1 callsubr
        </CharString>
        <CharString name="rdotbelow">
          -203 -189 116 94 -21 65 callgsubr
          360 527 -68 callsubr
          hintmask 11011000
          -45 callsubr
          hintmask 11101000
          -12 callsubr
          -189 -617 -78 callgsubr
          endchar
        </CharString>
        <CharString name="registered">
          261 -7 43 97 224 -69 69 149 71 94 44 hstemhm
          45 49 166 79 174 78 154 49 hintmask 1101111110000000
          418 -7 rmoveto
          215 58 callgsubr
          -215 -215 59 callsubr
          215 hvcurveto
          43 vmoveto
          -188 -136 139 180 178 136 138 188 188 139 -138 -179 -188 -143 -130 -184 hvcurveto
          -158 97 rmoveto
          79 hlineto
          hintmask 1011111110000000
          155 83 vlineto
          hintmask 1101111110000000
          98 -155 rlineto
          89 hlineto
          -107 169 rlineto
          53 17 36 54 59 vvcurveto
          71 -58 74 -80 vhcurveto
          -193 hlineto
          79 -220 rmoveto
          149 106 vlineto
          38 30 -27 -47 -45 -24 -30 -41 hvcurveto
          endchar
        </CharString>
        <CharString name="ring">
          -320 584 36 74 36 hstem
          40 48 81 48 vstem
          40 657 -85 callgsubr
          endchar
        </CharString>
        <CharString name="rinvertedbreve">
          -8 callsubr
          105 -4 callgsubr
          66 110 -84 238 hintmask 11001100
          211 679 rmoveto
          hintmask 11010010
          -92 callsubr
          hintmask 11001100
          -23 callsubr
          149 -152 -68 callsubr
          hintmask 10110100
          -45 callsubr
          hintmask 11010100
          -1 callsubr
        </CharString>
        <CharString name="s">
          36 callgsubr
          hstem
          45 103 212 106 vstem
          256 -10 -100 callgsubr
          endchar
        </CharString>
        <CharString name="s_t">
          269 -10 80 -80 103 -80 -21 446 94 -78 78 -9 -20 186 52 hstemhm
          43 98 197 49 -25 101 110 110 hintmask 0101001110100000
          813 114 rmoveto
          -7 -14 -31 -14 -30 hhcurveto
          -31 -24 16 37 hvcurveto
          292 113 vlineto
          hintmask 1000011110100000
          85 -113 vlineto
          142 -12 76 -156 -129 -48 -64 -77 -41 11 -26 17 -32 vhcurveto
          hintmask 1000101101100000
          23 -38 -52 8 -38 hhcurveto
          -97 -98 -54 -113 -96 72 -25 115 -24 hvcurveto
          64 -13 68 -5 -60 vvcurveto
          -53 -53 -19 -54 -60 -64 23 44 -62 vhcurveto
          -43 -75 rlineto
          -40 55 91 -32 85 hhcurveto
          110 96 52 112 99 -82 28 -118 21 hvcurveto
          -59 10 -63 9 60 vvcurveto
          54 50 19 53 44 51 -13 -42 52 vhcurveto
          45 68 rlineto
          hintmask 1000011110100000
          -12 14 -37 57 60 vvcurveto
          51 29 40 73 71 12 -38 -128 1 vhcurveto
          -70 hlineto
          hintmask 0011001110100000
          -85 70 -327 vlineto
          -84 57 -35 70 53 54 22 13 29 vhcurveto
          endchar
        </CharString>
        <CharString name="sacute">
          36 callgsubr
          9 callsubr
          45 103 212 106 vstem
          361 730 -100 callsubr
          -15 -608 -100 callgsubr
          endchar
        </CharString>
        <CharString name="scaron">
          36 callgsubr
          0 75 10 callgsubr
          45 103 212 106 hintmask 10111100
          103 702 -94 callgsubr
          95 -740 rmoveto
          128 82 63 99 -7 callgsubr
          hvcurveto
          -84 21 -30 11 43 vvcurveto
          hintmask 11011100
          51 44 22 55 53 53 -19 -39 49 vhcurveto
          47 66 rlineto
          45 -53 -70 25 -78 hhcurveto
          -114 -89 -61 -106 -81 52 -26 131 -34 hvcurveto
          91 -24 41 -13 -44 vvcurveto
          14 callgsubr
        </CharString>
        <CharString name="schwa">
          18 -10 81 156 70 153 82 hstem
          24 111 311 117 vstem
          294 -10 rmoveto
          164 105 123 148 147 -108 124 -162 -111 -90 -57 -77 -36 hvcurveto
          95 -27 rlineto
          47 20 58 32 59 hhcurveto
          81 70 -60 -93 7 hvcurveto
          -419 hlineto
          -2 -9 -1 -17 -10 vvcurveto
          -147 1 105 -124 164 hhcurveto
          2 81 rmoveto
          -84 -70 63 93 -7 hvcurveto
          313 hlineto
          -91 -6 -63 -65 -83 hhcurveto
          endchar
        </CharString>
        <CharString name="scircumflex">
          36 callgsubr
          9 callsubr
          45 103 212 106 vstem
          161 607 -101 callsubr
          153 -645 -100 callgsubr
          endchar
        </CharString>
        <CharString name="sdotbelow">
          -81 -31 callgsubr
          63 80 384 78 hstem
          45 103 49 99 64 106 vstem
          256 -10 -100 callgsubr
          40 -179 -78 callgsubr
          endchar
        </CharString>
        <CharString name="section">
          -53 -88 105 351 89 160 98 hstemhm
          45 111 -88 107 193 99 -99 114 hintmask 11110100
          443 208 rmoveto
          12 15 12 32 38 vvcurveto
          121 -112 41 -98 2 vhcurveto
          -57 1 -44 16 59 vvcurveto
          52 47 32 54 46 44 -18 -37 21 vhcurveto
          85 40 rlineto
          49 -34 -58 64 -111 hhcurveto
          -109 -96 -81 -102 -53 23 -41 22 -19 hvcurveto
          hintmask 11101010
          -10 -14 -12 -26 -38 vvcurveto
          -102 78 -62 125 -8 vhcurveto
          45 -3 52 -8 -57 vvcurveto
          -54 -53 -30 -53 -48 -43 18 44 -43 vhcurveto
          -71 -68 rlineto
          -39 36 73 -60 101 hhcurveto
          91 124 56 137 50 -15 34 -24 19 hvcurveto
          -268 119 rmoveto
          20 8 21 12 11 vhcurveto
          -7 14 27 -4 25 hhcurveto
          44 58 -19 -58 -21 -9 -23 -14 -11 hvcurveto
          -51 20 -114 -24 95 vvcurveto
          endchar
        </CharString>
        <CharString name="semicolon">
          -338 -76 -21 488 127 hstem
          71 90 vstem
          161 391 rmoveto
          127 -90 -127 vlineto
          63 -488 30 callsubr
        </CharString>
        <CharString name="servicemark">
          186 416 56 -40 -21 245 54 5 -20 hstemhm
          58 71 103 74 43 73 202 73 hintmask 10101111
          523 542 rmoveto
          68 callsubr
          71 -156 rlineto
          60 hlineto
          71 79 callsubr
          -298 -28 rmoveto
          hintmask 10011111
          20 -33 -38 13 -43 hhcurveto
          -69 -51 -34 -57 -53 34 -20 71 -17 hvcurveto
          55 -13 14 -8 -19 vvcurveto
          -14 -17 -8 -31 -43 -40 16 18 -22 vhcurveto
          -32 -54 rlineto
          hintmask 01101111
          -25 37 50 -16 49 hhcurveto
          71 52 28 59 58 -41 21 -73 17 hvcurveto
          -53 12 -10 9 16 vvcurveto
          15 16 10 32 35 32 -15 -16 21 vhcurveto
          endchar
        </CharString>
        <CharString name="seven">
          -29 -106 -21 609 101 hstem
          66 -127 rmoveto
          125 hlineto
          355 72 callsubr
        </CharString>
        <CharString name="seven.denominator">
          -201 21 -21 347 67 hstem
          54 hmoveto
          75 hlineto
          244 414 rlineto
          -348 -67 243 hlineto
          endchar
        </CharString>
        <CharString name="seven.lnum">
          -29 21 -21 609 101 hstem
          71 hmoveto
          124 hlineto
          356 72 callsubr
        </CharString>
        <CharString name="seven.numerator">
          -201 339 -21 346 66 hstem
          54 318 -5 callsubr
        </CharString>
        <CharString name="seveneighths">
          323 34 callgsubr
          103 64 251 66 hstemhm
          537 52 -52 67 193 51 -51 67 hintmask 0111101010000000
          136 -6 -93 callsubr
          779 79 1 callgsubr
          hintmask 1011110100000000
          -73 callgsubr
          -46 -18 -42 -31 -52 vvcurveto
          -70 74 -56 97 vhcurveto
          hintmask 1011110010000000
          93 79 51 73 hvcurveto
          -67 7 rmoveto
          -39 -52 -26 -51 -50 -55 24 40 40 -36 callsubr
          hintmask 1011101010000000
          -71 callgsubr
          -534 21 -5 callsubr
        </CharString>
        <CharString name="seveninferior">
          -201 -61 -21 347 66 hstem
          54 -82 rmoveto
          75 hlineto
          244 413 rlineto
          -348 -66 243 hlineto
          endchar
        </CharString>
        <CharString name="sevensuperior">
          -201 421 -21 346 66 hstem
          54 400 -5 callsubr
        </CharString>
        <CharString name="six">
          -79 callgsubr
        </CharString>
        <CharString name="six.denominator">
          -160 -5 61 162 58 77 64 hstem
          37 62 224 64 vstem
          387 138 1 callsubr
          43 -30 -54 24 -61 hhcurveto
          -112 -72 -82 -153 -118 70 -69 50 callsubr
          -82 rmoveto
          -60 -51 37 71 callgsubr
          -37 -60 hvcurveto
          endchar
        </CharString>
        <CharString name="six.lnum">
          -79 callgsubr
        </CharString>
        <CharString name="six.numerator">
          -161 307 62 42 callsubr
          451 -30 callgsubr
          -70 105 99 76 64 80 hvcurveto
          -173 -82 rmoveto
          -60 -51 38 44 34 callsubr
          -45 -43 -49 -38 -60 hvcurveto
          endchar
        </CharString>
        <CharString name="sixinferior">
          -160 -87 60 163 58 77 63 hstem
          37 62 224 64 vstem
          387 56 1 callsubr
          42 -30 -54 24 -61 hhcurveto
          -112 -72 -81 -153 -119 70 -68 50 callsubr
          -83 rmoveto
          -60 -51 38 71 callgsubr
          -38 -60 hvcurveto
          endchar
        </CharString>
        <CharString name="sixsuperior">
          -161 390 61 42 callsubr
          533 -30 callgsubr
          -69 50 callsubr
          -82 rmoveto
          -60 -51 38 44 34 callsubr
          -44 -44 -49 -38 -60 hvcurveto
          endchar
        </CharString>
        <CharString name="slash">
          87 -24 callsubr
          514 710 rmoveto
          -487 -710 rlineto
          122 hlineto
          487 710 rlineto
          endchar
        </CharString>
        <CharString name="space">
          -330 endchar
        </CharString>
        <CharString name="sterling">
          -49 -15 94 -67 67 -67 85 197 84 247 90 hstemhm
          76 100 -11 96 hintmask 01011010
          55 294 rmoveto
          108 hlineto
          1 -9 1 -10 -9 vvcurveto
          -64 -34 -61 -79 -70 vhcurveto
          26 -79 rlineto
          12 39 47 8 34 hhcurveto
          hintmask 10011100
          17 callsubr
          hintmask 00111010
          67 callgsubr
          67 71 25 51 63 vvcurveto
          8 -1 7 -1 8 vhcurveto
          159 84 -182 hlineto
          hintmask 10011100
          -25 56 -35 45 51 7 callgsubr
          -59 33 -50 26 -53 hvcurveto
          -80 hlineto
          endchar
        </CharString>
        <CharString name="summation">
          -23 0 97 526 87 hstem
          507 710 rmoveto
          -468 -71 hlineto
          212 -283 -219 -280 rlineto
          -76 487 97 -359 4 vlineto
          205 268 -186 250 rlineto
          4 328 vlineto
          endchar
        </CharString>
        <CharString name="t">
          -210 -8 101 345 85 172 -20 hstem
          93 -3 callgsubr
          334 114 rmoveto
          24 callgsubr
          -80 callgsubr
        </CharString>
        <CharString name="t.alt">
          -221 21 -21 423 100 172 -20 hstem
          104 -44 callsubr
          217 hmoveto
          423 122 100 -122 172 -113 -172 -77 -100 77 -423 vlineto
          endchar
        </CharString>
        <CharString name="tbar">
          -209 -8 101 187 67 91 85 172 -20 hstem
          94 -3 callgsubr
          335 114 rmoveto
          24 callgsubr
          -30 -24 16 37 -2 hvcurveto
          134 114 67 -114 91 114 85 -114 172 -110 -172 -69 -85 69 -91 -69 -67 69 -169 vlineto
          -84 58 -35 69 56 53 44 callsubr
        </CharString>
        <CharString name="tcaron">
          -210 -8 101 345 85 207 -20 hstem
          93 -3 callgsubr
          419 730 -100 callsubr
          5 -484 rmoveto
          24 callgsubr
          -80 callgsubr
        </CharString>
        <CharString name="tdotbelow">
          -210 -31 callgsubr
          65 101 26 callgsubr
          -38 99 hintmask 11110100
          264 -20 callgsubr
          169 303 rmoveto
          24 callgsubr
          hintmask 11111000
          -80 callgsubr
        </CharString>
        <CharString name="thorn">
          25 -192 -21 192 100 358 99 174 -20 hstem
          66 113 279 -44 callsubr
          571 257 rmoveto
          133 -97 146 -155 -73 -42 -35 -36 -25 vhcurveto
          245 -113 -923 113 257 vlineto
          -32 19 48 -33 64 hhcurveto
          144 115 131 147 2 hvcurveto
          -113 1 rmoveto
          -95 -63 -84 -88 -57 -71 49 46 vhcurveto
          166 vlineto
          53 27 43 44 63 hhcurveto
          89 57 -84 -95 hvcurveto
          endchar
        </CharString>
        <CharString name="three">
          -28 -147 100 236 86 204 97 hstemhm
          378 117 -101 114 hintmask 11110000
          369 236 rmoveto
          77 13 49 70 79 vvcurveto
          107 -90 71 -131 -101 -93 -43 -64 -38 vhcurveto
          69 -75 rlineto
          54 31 53 31 68 hhcurveto
          67 48 -30 -63 -64 -50 -47 -89 hvcurveto
          -30 -86 27 hlineto
          hintmask 11101000
          104 54 -47 -77 -74 -50 -38 -87 -77 -49 30 49 -32 hvcurveto
          -67 -76 rlineto
          -66 46 80 -37 101 hhcurveto
          151 98 81 124 93 -55 70 -84 15 hvcurveto
          endchar
        </CharString>
        <CharString name="three.denominator">
          -176 -5 67 -18 callsubr
          -5 -28 callsubr
          48 vvcurveto
          -51 callgsubr
          hintmask 11110000
          86 callgsubr
          hintmask 11100100
          -41 callgsubr
        </CharString>
        <CharString name="three.lnum">
          8 -9 102 225 93 211 97 hstemhm
          405 116 -98 98 -98 114 hintmask 11100100
          277 -9 rmoveto
          133 127 68 129 89 -59 76 -93 17 hvcurveto
          hintmask 11110000
          86 20 50 53 80 vvcurveto
          111 -103 85 -140 -94 -97 -40 -67 -43 vhcurveto
          72 -79 rlineto
          45 23 56 44 84 hhcurveto
          62 64 -36 -68 -73 -79 -34 -116 hvcurveto
          -34 -93 34 hlineto
          hintmask 11101000
          132 81 -40 -75 -68 -66 -42 -82 -105 -60 68 48 -6 hvcurveto
          -60 -70 rlineto
          -92 25 89 -56 119 hhcurveto
          endchar
        </CharString>
        <CharString name="three.numerator">
          -177 306 68 -18 callsubr
          -74 callsubr
          hintmask 11110000
          86 callgsubr
          hintmask 11100100
          -36 callgsubr
          endchar
        </CharString>
        <CharString name="threeeighths">
          349 34 callgsubr
          60 68 -25 64 82 61 113 62 hstemhm
          135 -7 callsubr
          173 -58 callgsubr
          hintmask 1011011010100100
          201 -74 callsubr
          hintmask 1011011100100100
          86 callgsubr
          hintmask 0111011001100001
          -36 callgsubr
          14 -312 -93 callsubr
          727 79 1 callgsubr
          hintmask 1010111100010010
          -73 callgsubr
          hintmask 1011011100100001
          -46 -18 -42 -31 -82 callsubr
          hintmask 1010111100001100
          -71 callgsubr
          endchar
        </CharString>
        <CharString name="threeinferior">
          -176 -87 66 122 61 113 61 hstemhm
          125 -7 callsubr
          hintmask 11101000
          191 -87 -28 callsubr
          47 vvcurveto
          65 -70 48 -94 -65 -65 -22 -38 -28 vhcurveto
          44 -53 rlineto
          30 22 38 22 54 hhcurveto
          46 47 -20 -36 -40 -53 -17 -82 hvcurveto
          hintmask 11110000
          86 callgsubr
          hintmask 11100100
          92 57 -22 -41 -37 -48 -22 -59 -69 -45 36 28 -9 hvcurveto
          -37 -48 rlineto
          -53 16 62 -29 83 hhcurveto
          endchar
        </CharString>
        <CharString name="threequarters">
          324 15 -21 27 -21 97 65 144 68 121 61 113 62 hstemhm
          134 -7 callsubr
          367 64 hintmask 0111110101000000
          200 -74 callsubr
          hintmask 0111111001000000
          86 callgsubr
          hintmask 0111110011000000
          -36 callgsubr
          605 -306 rmoveto
          -49 callsubr
          hintmask 1011111001000000
          -339 -168 -29 callsubr
        </CharString>
        <CharString name="threesuperior">
          -177 389 67 -18 callsubr
          389 rmoveto
          90 84 39 22 callsubr
          11 34 31 46 vvcurveto
          65 -70 49 -94 -65 -65 -22 -39 -28 vhcurveto
          44 -52 rlineto
          30 -12 callgsubr
          -19 -36 -40 -53 -18 -82 hvcurveto
          hintmask 11110000
          86 callgsubr
          hintmask 11100100
          92 57 -21 -41 -37 -48 -22 -59 -71 -45 38 25 -7 hvcurveto
          -37 -48 rlineto
          -52 16 62 -30 83 hhcurveto
          endchar
        </CharString>
        <CharString name="tilde">
          -151 615 66 -50 -21 48 23 -16 callgsubr
          hintmask 01101000
          277 32 callgsubr
          hintmask 01010000
          -94 callsubr
          hintmask 10001000
          -56 callsubr
        </CharString>
        <CharString name="trademark">
          216 437 -21 223 73 -2 -20 hstemhm
          157 73 141 73 203 73 hintmask 11011100
          325 712 rmoveto
          -263 -73 95 -223 73 223 95 hlineto
          220 -97 rmoveto
          hintmask 10111100
          68 callsubr
          72 -156 rlineto
          59 hlineto
          72 79 callsubr
          endchar
        </CharString>
        <CharString name="two">
          -28 0 99 385 97 hstem
          373 119 vstem
          503 hmoveto
          99 -331 vlineto
          21 63 96 46 55 27 rrcurveto
          59 29 89 53 99 vvcurveto
          94 -77 71 -129 -122 -88 -65 -30 -28 vhcurveto
          70 -81 rlineto
          35 29 46 44 73 hhcurveto
          69 38 -40 -43 -61 -79 -27 -93 -52 hvcurveto
          -130 -72 -31 -76 -113 vvcurveto
          endchar
        </CharString>
        <CharString name="two.denominator">
          -167 0 15 callgsubr
          371 hmoveto
          48 callgsubr
          29 85 12 callgsubr
          -24 -38 -56 -72 -18 -61 -24 hvcurveto
          -93 -37 -37 -49 -107 vvcurveto
          endchar
        </CharString>
        <CharString name="two.lnum">
          22 0 99 519 101 hstem
          44 149 228 124 vstem
          546 hmoveto
          99 -353 vlineto
          81 44 45 119 57 vhcurveto
          96 47 93 51 127 vvcurveto
          120 -80 92 -152 -145 -92 -85 -34 -28 vhcurveto
          70 -73 rlineto
          39 33 64 52 85 hhcurveto
          80 41 -48 -65 -103 -103 -29 -88 -43 hvcurveto
          -130 -64 -56 -80 -186 vvcurveto
          endchar
        </CharString>
        <CharString name="two.numerator">
          -171 313 15 callgsubr
          361 313 rmoveto
          65 -221 vlineto
          33 21 37 74 24 vhcurveto
          54 17 81 29 85 vvcurveto
          77 -54 51 18 callsubr
          -56 -72 -18 -62 -25 hvcurveto
          -92 -37 -37 -48 -107 vvcurveto
          endchar
        </CharString>
        <CharString name="twoinferior">
          -167 -82 15 callgsubr
          371 -82 rmoveto
          48 callgsubr
          28 86 12 callgsubr
          -25 -37 -56 -72 -18 -61 -24 hvcurveto
          -93 -38 -37 -48 -107 vvcurveto
          endchar
        </CharString>
        <CharString name="twosuperior">
          -171 395 15 callgsubr
          361 395 rmoveto
          65 -237 vlineto
          33 36 36 75 24 vhcurveto
          54 17 81 30 85 vvcurveto
          78 -54 50 18 callsubr
          -55 -72 -18 -62 -25 hvcurveto
          -93 -38 -36 -48 -107 vvcurveto
          endchar
        </CharString>
        <CharString name="twothirds">
          363 -5 67 -47 -21 189 61 69 65 -21 62 247 65 hstemhm
          297 73 295 -7 callsubr
          hintmask 0111011100000000
          361 313 rmoveto
          65 -215 vlineto
          33 21 37 72 24 vhcurveto
          52 17 79 29 85 vvcurveto
          77 -53 51 -100 -96 -60 -46 -22 -16 vhcurveto
          42 -48 rlineto
          22 21 40 29 59 hhcurveto
          59 31 -25 -37 -56 -70 -18 -60 -25 hvcurveto
          -90 -37 -36 -48 -107 vvcurveto
          192 -319 -93 callsubr
          hintmask 1010111010000000
          549 -45 -28 callsubr
          48 vvcurveto
          -51 callgsubr
          hintmask 1011011100000000
          86 callgsubr
          hintmask 1011011001000000
          -41 callgsubr
        </CharString>
        <CharString name="u">
          32 -10 94 -68 -21 528 14 callsubr
          hintmask 10111000
          46 callsubr
          hintmask 01110100
          -85 callsubr
          hintmask 10111000
          -69 callsubr
        </CharString>
        <CharString name="u.alt">
          24 -10 94 -63 -15 callsubr
          -24 callgsubr
          hintmask 01111000
          535 hmoveto
          523 -40 callgsubr
          hintmask 10111000
          -67 -29 -59 -46 -62 hhcurveto
          -82 -22 62 79 hvcurveto
          298 -110 -320 vlineto
          -123 42 -90 131 79 77 38 71 39 vhcurveto
          hintmask 01111000
          -99 vlineto
          endchar
        </CharString>
        <CharString name="uacute">
          -40 callsubr
          412 730 -100 callsubr
          -95 -608 -77 callsubr
          hintmask 01111010
          -85 callsubr
          hintmask 10111100
          -69 callsubr
        </CharString>
        <CharString name="ubreve">
          -53 callsubr
          105 51 -51 122 6 callgsubr
          7 238 9 110 -93 123 hintmask 1011011100000000
          46 callsubr
          hintmask 0111011010000000
          -85 callsubr
          hintmask 1011011100000000
          -104 callsubr
          70 669 rmoveto
          hintmask 1010111100000000
          -92 callgsubr
          hintmask 1011011100000000
          -60 callsubr
        </CharString>
        <CharString name="ucircumflex">
          -40 callsubr
          212 607 -101 callsubr
          73 -645 -77 callsubr
          hintmask 01111010
          -85 callsubr
          hintmask 10111100
          -69 callsubr
        </CharString>
        <CharString name="udblgrave">
          -40 callsubr
          362 598 -95 callgsubr
          98 -740 -77 callsubr
          hintmask 01111010
          -85 callsubr
          hintmask 10111100
          -69 callsubr
        </CharString>
        <CharString name="udieresis">
          -53 callsubr
          112 110 6 callgsubr
          -8 92 85 92 -7 110 -93 93 -93 123 hintmask 1011011010000000
          255 615 -97 callgsubr
          -113 -625 -77 callsubr
          hintmask 0111101001000000
          -85 callsubr
          hintmask 1011100100000000
          -69 callsubr
        </CharString>
        <CharString name="udotbelow">
          32 -31 callgsubr
          63 -38 callsubr
          6 callgsubr
          71 99 84 110 -93 123 hintmask 11011110
          46 callsubr
          hintmask 10111101
          -85 callsubr
          hintmask 11011110
          -104 callsubr
          114 -179 -78 callgsubr
          endchar
        </CharString>
        <CharString name="ugrave">
          -40 callsubr
          46 callsubr
          hintmask 01111010
          -85 callsubr
          hintmask 10111100
          -104 callsubr
          47 608 -84 callsubr
        </CharString>
        <CharString name="uhungarumlaut">
          -40 callsubr
          46 callsubr
          hintmask 01111010
          -85 callsubr
          hintmask 10111100
          -104 callsubr
          92 740 -71 callsubr
          endchar
        </CharString>
        <CharString name="uinvertedbreve">
          -53 callsubr
          105 -4 callgsubr
          61 110 6 238 10 110 -93 123 hintmask 1010111100000000
          296 679 rmoveto
          hintmask 1011011100000000
          -92 callsubr
          hintmask 1010111100000000
          -23 callsubr
          -69 -689 -77 callsubr
          hintmask 0111011010000000
          -85 callsubr
          hintmask 1011011100000000
          -69 callsubr
        </CharString>
        <CharString name="umacron">
          -53 callsubr
          141 70 -53 callgsubr
          hintmask 10111100
          46 callsubr
          hintmask 01111010
          -85 callsubr
          hintmask 10111100
          -104 callsubr
          219 654 -42 callgsubr
        </CharString>
        <CharString name="underscore">
          -87 -99 99 hstem
          431 -99 rmoveto
          99 -372 -99 vlineto
          endchar
        </CharString>
        <CharString name="uni00A0">
          -330 endchar
        </CharString>
        <CharString name="uni00AD">
          25 callsubr
        </CharString>
        <CharString name="uni015E">
          34 39 callgsubr
          35 100 521 100 hstem
          53 117 216 54 19 120 vstem
          218 -82 callgsubr
          25 39 rlineto
          129 8 101 60 135 vvcurveto
          129 -90 42 -144 35 vhcurveto
          -118 29 -57 17 68 vvcurveto
          -55 callsubr
          51 92 rlineto
          -91 callgsubr
          -59 -50 -32 -88 -108 -102 56 35 -34 vhcurveto
          -51 -96 75 -58 96 -33 101 -4 rlinecurve
          -44 -84 -79 callsubr
        </CharString>
        <CharString name="uni015F">
          -81 39 callgsubr
          32 79 384 78 hstemhm
          45 103 175 54 -17 106 hintmask 11111100
          155 -82 callgsubr
          23 36 rlineto
          hintmask 11111010
          112 9 70 60 92 vvcurveto
          -7 callgsubr
          vhcurveto
          -84 21 -30 11 43 vvcurveto
          51 44 22 55 53 53 -19 -39 49 vhcurveto
          47 66 rlineto
          45 -53 -70 25 -78 hhcurveto
          -114 -89 -61 -106 -81 52 -26 131 -34 hvcurveto
          91 -24 41 -13 -44 vvcurveto
          -47 -41 -26 -65 -64 -61 24 45 -62 vhcurveto
          -44 -70 54 -47 79 -26 77 -5 rlinecurve
          -42 -81 rlineto
          5 17 35 7 28 hhcurveto
          hintmask 11111100
          31 21 -8 -26 -24 -22 -10 -35 -35 -37 11 9 -16 hvcurveto
          endchar
        </CharString>
        <CharString name="uni0162">
          38 39 callgsubr
          62 -21 611 99 hstem
          251 113 13 54 vstem
          209 -82 callgsubr
          29 45 rlineto
          20 611 236 99 -586 -99 237 -611 41 hlineto
          -47 -90 -79 callsubr
        </CharString>
        <CharString name="uni0163">
          -210 39 callgsubr
          -37 171 26 callgsubr
          83 54 hintmask 11011110
          118 -82 callgsubr
          25 39 45 6 40 16 23 11 rlinecurve
          -23 87 rlineto
          hintmask 10111110
          24 callgsubr
          -30 -24 16 37 -2 hvcurveto
          292 114 85 -114 172 -110 -172 -69 -85 69 -327 vlineto
          -75 46 -36 59 -7 vhcurveto
          -44 -83 -79 callsubr
        </CharString>
</ttFont>
